<mxfile host="app.diagrams.net" modified="2023-04-06T01:30:13.974Z" agent="5.0 (Macintosh; Intel Mac OS X 10_15_7) AppleWebKit/537.36 (KHTML, like Gecko) Chrome/111.0.0.0 Safari/537.36" etag="syhgaOSJ6ddMEZtbgtkJ" version="20.5.1" type="github">
  <diagram id="FcZgSzz_AmjVoHhf5cy6" name="Page-1">
    <mxGraphModel dx="946" dy="454" grid="1" gridSize="10" guides="1" tooltips="1" connect="1" arrows="1" fold="1" page="1" pageScale="1" pageWidth="850" pageHeight="1100" math="0" shadow="0">
      <root>
        <mxCell id="0" />
        <mxCell id="1" parent="0" />
        <mxCell id="HWM3NpdvjakO-T2oUYKm-1" value="" style="whiteSpace=wrap;html=1;aspect=fixed;" parent="1" vertex="1">
          <mxGeometry x="550" y="60" width="80" height="80" as="geometry" />
        </mxCell>
        <mxCell id="OwJkbludtYk3xfgfMCcP-5" value="" style="shape=image;verticalLabelPosition=bottom;labelBackgroundColor=default;verticalAlign=top;aspect=fixed;imageAspect=0;image=data:image/jpeg,/9j/4AAQSkZJRgABAQAASABIAAD/4QBqRXhpZgAATU0AKgAAAAgAAgESAAMAAAABAAEAAIdpAAQAAAABAAAAJgAAAAAAA5KGAAcAAAASAAAAUKACAAQAAAABAAAC26ADAAQAAAABAAABcwAAAABBU0NJSQAAAFNjcmVlbnNob3T/4QkhaHR0cDovL25zLmFkb2JlLmNvbS94YXAvMS4wLwA8P3hwYWNrZXQgYmVnaW49Iu+7vyIgaWQ9Ilc1TTBNcENlaGlIenJlU3pOVGN6a2M5ZCI/PiA8eDp4bXBtZXRhIHhtbG5zOng9ImFkb2JlOm5zOm1ldGEvIiB4OnhtcHRrPSJYTVAgQ29yZSA1LjQuMCI+IDxyZGY6UkRGIHhtbG5zOnJkZj0iaHR0cDovL3d3dy53My5vcmcvMTk5OS8wMi8yMi1yZGYtc3ludGF4LW5zIyI+IDxyZGY6RGVzY3JpcHRpb24gcmRmOmFib3V0PSIiLz4gPC9yZGY6UkRGPiA8L3g6eG1wbWV0YT4gICAgICAgICAgICAgICAgICAgICAgICAgICAgICAgICAgICAgICAgICAgICAgICAgICAgICAgICAgICAgICAgICAgICAgICAgICAgICAgICAgICAgICAgICAgICAgICAgICAgICAgICAgICAgICAgICAgICAgICAgICAgICAgICAgICAgICAgICAgICAgICAgICAgICAgICAgICAgICAgICAgICAgICAgICAgICAgICAgICAgICAgICAgICAgICAgICAgICAgICAgICAgICAgICAgICAgICAgICAgICAgICAgICAgICAgICAgICAgICAgICAgICAgICAgICAgICAgICAgICAgICAgICAgICAgICAgICAgICAgICAgICAgICAgICAgICAgICAgICAgICAgICAgICAgICAgICAgICAgICAgICAgICAgICAgICAgICAgICAgICAgICAgICAgICAgICAgICAgICAgICAgICAgICAgICAgICAgICAgICAgICAgICAgICAgICAgICAgICAgICAgICAgICAgICAgICAgICAgICAgICAgICAgICAgICAgICAgICAgICAgICAgICAgICAgICAgICAgICAgICAgICAgICAgICAgICAgICAgICAgICAgICAgICAgICAgICAgICAgICAgICAgICAgICAgICAgICAgICAgICAgICAgICAgICAgICAgICAgICAgICAgICAgICAgICAgICAgICAgICAgICAgICAgICAgICAgICAgICAgICAgICAgICAgICAgICAgICAgICAgICAgICAgICAgICAgICAgICAgICAgICAgICAgICAgICAgICAgICAgICAgICAgICAgICAgICAgICAgICAgICAgICAgICAgICAgICAgICAgICAgICAgICAgICAgICAgICAgICAgICAgICAgICAgICAgICAgICAgICAgICAgICAgICAgICAgICAgICAgICAgICAgICAgICAgICAgICAgICAgICAgICAgICAgICAgICAgICAgICAgICAgICAgICAgICAgICAgICAgICAgICAgICAgICAgICAgICAgICAgICAgICAgICAgICAgICAgICAgICAgICAgICAgICAgICAgICAgICAgICAgICAgICAgICAgICAgICAgICAgICAgICAgICAgICAgICAgICAgICAgICAgICAgICAgICAgICAgICAgICAgICAgICAgICAgICAgICAgICAgICAgICAgICAgICAgICAgICAgICAgICAgICAgICAgICAgICAgICAgICAgICAgICAgICAgICAgICAgICAgICAgICAgICAgICAgICAgICAgICAgICAgICAgICAgICAgICAgICAgICAgICAgICAgICAgICAgICAgICAgICAgICAgICAgICAgICAgICAgICAgICAgICAgICAgICAgICAgICAgICAgICAgICAgICAgICAgICAgICAgICAgICAgICAgICAgICAgICAgICAgICAgICAgICAgICAgICAgICAgICAgICAgICAgICAgICAgICAgICAgICAgICAgICAgICAgICAgICAgICAgICAgICAgICAgICAgICAgICAgICAgICAgICAgICAgICAgICAgICAgICAgICAgICAgICAgICAgICAgICAgICAgICAgICAgICAgICAgICAgICAgICAgICAgICAgICAgICAgICAgICAgICAgICAgICAgICAgICAgICAgICAgICAgICAgICAgICAgICAgICAgICAgICAgICAgICAgICAgICAgICAgICAgICAgICAgICAgICAgICAgICAgICAgICAgICAgICAgICAgICAgICAgICAgICAgICAgICAgICAgICAgICAgICAgICAgICAgICAgICAgICAgICAgICAgICAgICAgICAgICAgICAgICAgICAgICAgICAgICAgICAgICAgICAgICAgICAgICAgICAgICAgICAgICAgICAgICAgICAgICAgICAgICAgICAgICAgICAgICAgICAgICAgICAgICAgICAgICAgICAgICAgICAgICAgICAgICAgICAgICAgICAgICAgICAgICAgICAgICAgICAgICAgICAgICAgICAgICAgICAgICAgICAgICAgICAgICAgICAgICAgICAgICAgICAgICAgICAgICAgICAgICAgICAgICAgICAgICAgICAgICAgICAgICAgICAgICAgICAgICAgICAgICAgICAgICAgICAgICAgICAgICAgICAgICAgICAgICAgICAgICAgICAgICAgICAgICAgICAgICAgICAgICAgICAgICAgICAgICAgICAgICAgICAgICAgICAgICAgICAgICAgICAgICAgICAgICAgICAgICAgICAgICAgICAgICAgICAgICAgICAgICAgICAgICAgICAgICAgICAgICAgICAgICAgICAgICAgICAgICAgICAgICAgICAgICAgICAgICAgICAgICAgICAgICAgICAgICAgICAgICAgICAgICAgICAgICAgICAgICAgICAgICAgICAgICAgICAgICAgICAgICAgICAgICAgICAgICAgICAgICAgICAgICAgICAgICAgICAgICAgICAgICAgICAgICAgICAgICAgICAgICAgICAgICAgICAgICAgICAgICAgICAgICA8P3hwYWNrZXQgZW5kPSJ3Ij8+AP/tADhQaG90b3Nob3AgMy4wADhCSU0EBAAAAAAAADhCSU0EJQAAAAAAENQdjNmPALIE6YAJmOz4Qn7/4hvUSUNDX1BST0ZJTEUAAQEAABvEYXBwbAIQAABtbnRyUkdCIFhZWiAH5wABAAoAFQAXAAJhY3NwQVBQTAAAAABBUFBMAAAAAAAAAAAAAAAAAAAAAAAA9tYAAQAAAADTLWFwcGwAAAAAAAAAAAAAAAAAAAAAAAAAAAAAAAAAAAAAAAAAAAAAAAAAAAAAAAAAAAAAABJkZXNjAAABXAAAAGJkc2NtAAABwAAABIJjcHJ0AAAGRAAAACN3dHB0AAAGaAAAABRyWFlaAAAGfAAAABRnWFlaAAAGkAAAABRiWFlaAAAGpAAAABRyVFJDAAAGuAAACAxhYXJnAAAOxAAAACB2Y2d0AAAO5AAABhJuZGluAAAU+AAABj5jaGFkAAAbOAAAACxtbW9kAAAbZAAAACh2Y2dwAAAbjAAAADhiVFJDAAAGuAAACAxnVFJDAAAGuAAACAxhYWJnAAAOxAAAACBhYWdnAAAOxAAAACBkZXNjAAAAAAAAAAhEaXNwbGF5AAAAAAAAAAAAAAAAAAAAAAAAAAAAAAAAAAAAAAAAAAAAAAAAAAAAAAAAAAAAAAAAAAAAAAAAAAAAAAAAAAAAAAAAAAAAAAAAAAAAAAAAAAAAbWx1YwAAAAAAAAAmAAAADGhySFIAAAAUAAAB2GtvS1IAAAAMAAAB7G5iTk8AAAASAAAB+GlkAAAAAAASAAACCmh1SFUAAAAUAAACHGNzQ1oAAAAWAAACMGRhREsAAAAcAAACRm5sTkwAAAAWAAACYmZpRkkAAAAQAAACeGl0SVQAAAAUAAACiGVzRVMAAAASAAACnHJvUk8AAAASAAACnGZyQ0EAAAAWAAACrmFyAAAAAAAUAAACxHVrVUEAAAAcAAAC2GhlSUwAAAAWAAAC9HpoVFcAAAAKAAADCnZpVk4AAAAOAAADFHNrU0sAAAAWAAADInpoQ04AAAAKAAADCnJ1UlUAAAAkAAADOGVuR0IAAAAUAAADXGZyRlIAAAAWAAADcG1zAAAAAAASAAADhmhpSU4AAAASAAADmHRoVEgAAAAMAAADqmNhRVMAAAAYAAADtmVuQVUAAAAUAAADXGVzWEwAAAASAAACnGRlREUAAAAQAAADzmVuVVMAAAASAAAD3nB0QlIAAAAYAAAD8HBsUEwAAAASAAAECGVsR1IAAAAiAAAEGnN2U0UAAAAQAAAEPHRyVFIAAAAUAAAETHB0UFQAAAAWAAAEYGphSlAAAAAMAAAEdgBMAEMARAAgAHUAIABiAG8AagBpzuy37AAgAEwAQwBEAEYAYQByAGcAZQAtAEwAQwBEAEwAQwBEACAAVwBhAHIAbgBhAFMAegDtAG4AZQBzACAATABDAEQAQgBhAHIAZQB2AG4A/QAgAEwAQwBEAEwAQwBEAC0AZgBhAHIAdgBlAHMAawDmAHIAbQBLAGwAZQB1AHIAZQBuAC0ATABDAEQAVgDkAHIAaQAtAEwAQwBEAEwAQwBEACAAYwBvAGwAbwByAGkATABDAEQAIABjAG8AbABvAHIAQQBDAEwAIABjAG8AdQBsAGUAdQByIA8ATABDAEQAIAZFBkQGSAZGBikEGgQ+BDsETAQ+BEAEPgQyBDgEOQAgAEwAQwBEIA8ATABDAEQAIAXmBdEF4gXVBeAF2V9pgnIATABDAEQATABDAEQAIABNAOAAdQBGAGEAcgBlAGIAbgD9ACAATABDAEQEJgQyBDUEQgQ9BD4EOQAgBBYEGgAtBDQEOARBBD8EOwQ1BDkAQwBvAGwAbwB1AHIAIABMAEMARABMAEMARAAgAGMAbwB1AGwAZQB1AHIAVwBhAHIAbgBhACAATABDAEQJMAkCCRcJQAkoACAATABDAEQATABDAEQAIA4qDjUATABDAEQAIABlAG4AIABjAG8AbABvAHIARgBhAHIAYgAtAEwAQwBEAEMAbwBsAG8AcgAgAEwAQwBEAEwAQwBEACAAQwBvAGwAbwByAGkAZABvAEsAbwBsAG8AcgAgAEwAQwBEA4gDswPHA8EDyQO8A7cAIAO/A7gDzAO9A7cAIABMAEMARABGAOQAcgBnAC0ATABDAEQAUgBlAG4AawBsAGkAIABMAEMARABMAEMARAAgAGEAIABDAG8AcgBlAHMwqzDpMPwATABDAEQAAHRleHQAAAAAQ29weXJpZ2h0IEFwcGxlIEluYy4sIDIwMjMAAFhZWiAAAAAAAADzUgABAAAAARbPWFlaIAAAAAAAAGXoAAA8EAAACdBYWVogAAAAAAAAapMAAKrFAAAXilhZWiAAAAAAAAAmWwAAGSwAALHSY3VydgAAAAAAAAQAAAAABQAKAA8AFAAZAB4AIwAoAC0AMgA2ADsAQABFAEoATwBUAFkAXgBjAGgAbQByAHcAfACBAIYAiwCQAJUAmgCfAKMAqACtALIAtwC8AMEAxgDLANAA1QDbAOAA5QDrAPAA9gD7AQEBBwENARMBGQEfASUBKwEyATgBPgFFAUwBUgFZAWABZwFuAXUBfAGDAYsBkgGaAaEBqQGxAbkBwQHJAdEB2QHhAekB8gH6AgMCDAIUAh0CJgIvAjgCQQJLAlQCXQJnAnECegKEAo4CmAKiAqwCtgLBAssC1QLgAusC9QMAAwsDFgMhAy0DOANDA08DWgNmA3IDfgOKA5YDogOuA7oDxwPTA+AD7AP5BAYEEwQgBC0EOwRIBFUEYwRxBH4EjASaBKgEtgTEBNME4QTwBP4FDQUcBSsFOgVJBVgFZwV3BYYFlgWmBbUFxQXVBeUF9gYGBhYGJwY3BkgGWQZqBnsGjAadBq8GwAbRBuMG9QcHBxkHKwc9B08HYQd0B4YHmQesB78H0gflB/gICwgfCDIIRghaCG4IggiWCKoIvgjSCOcI+wkQCSUJOglPCWQJeQmPCaQJugnPCeUJ+woRCicKPQpUCmoKgQqYCq4KxQrcCvMLCwsiCzkLUQtpC4ALmAuwC8gL4Qv5DBIMKgxDDFwMdQyODKcMwAzZDPMNDQ0mDUANWg10DY4NqQ3DDd4N+A4TDi4OSQ5kDn8Omw62DtIO7g8JDyUPQQ9eD3oPlg+zD88P7BAJECYQQxBhEH4QmxC5ENcQ9RETETERTxFtEYwRqhHJEegSBxImEkUSZBKEEqMSwxLjEwMTIxNDE2MTgxOkE8UT5RQGFCcUSRRqFIsUrRTOFPAVEhU0FVYVeBWbFb0V4BYDFiYWSRZsFo8WshbWFvoXHRdBF2UXiReuF9IX9xgbGEAYZRiKGK8Y1Rj6GSAZRRlrGZEZtxndGgQaKhpRGncanhrFGuwbFBs7G2MbihuyG9ocAhwqHFIcexyjHMwc9R0eHUcdcB2ZHcMd7B4WHkAeah6UHr4e6R8THz4faR+UH78f6iAVIEEgbCCYIMQg8CEcIUghdSGhIc4h+yInIlUigiKvIt0jCiM4I2YjlCPCI/AkHyRNJHwkqyTaJQklOCVoJZclxyX3JicmVyaHJrcm6CcYJ0kneierJ9woDSg/KHEooijUKQYpOClrKZ0p0CoCKjUqaCqbKs8rAis2K2krnSvRLAUsOSxuLKIs1y0MLUEtdi2rLeEuFi5MLoIuty7uLyQvWi+RL8cv/jA1MGwwpDDbMRIxSjGCMbox8jIqMmMymzLUMw0zRjN/M7gz8TQrNGU0njTYNRM1TTWHNcI1/TY3NnI2rjbpNyQ3YDecN9c4FDhQOIw4yDkFOUI5fzm8Ofk6Njp0OrI67zstO2s7qjvoPCc8ZTykPOM9Ij1hPaE94D4gPmA+oD7gPyE/YT+iP+JAI0BkQKZA50EpQWpBrEHuQjBCckK1QvdDOkN9Q8BEA0RHRIpEzkUSRVVFmkXeRiJGZ0arRvBHNUd7R8BIBUhLSJFI10kdSWNJqUnwSjdKfUrESwxLU0uaS+JMKkxyTLpNAk1KTZNN3E4lTm5Ot08AT0lPk0/dUCdQcVC7UQZRUFGbUeZSMVJ8UsdTE1NfU6pT9lRCVI9U21UoVXVVwlYPVlxWqVb3V0RXklfgWC9YfVjLWRpZaVm4WgdaVlqmWvVbRVuVW+VcNVyGXNZdJ114XcleGl5sXr1fD19hX7NgBWBXYKpg/GFPYaJh9WJJYpxi8GNDY5dj62RAZJRk6WU9ZZJl52Y9ZpJm6Gc9Z5Nn6Wg/aJZo7GlDaZpp8WpIap9q92tPa6dr/2xXbK9tCG1gbbluEm5rbsRvHm94b9FwK3CGcOBxOnGVcfByS3KmcwFzXXO4dBR0cHTMdSh1hXXhdj52m3b4d1Z3s3gReG54zHkqeYl553pGeqV7BHtje8J8IXyBfOF9QX2hfgF+Yn7CfyN/hH/lgEeAqIEKgWuBzYIwgpKC9INXg7qEHYSAhOOFR4Wrhg6GcobXhzuHn4gEiGmIzokziZmJ/opkisqLMIuWi/yMY4zKjTGNmI3/jmaOzo82j56QBpBukNaRP5GokhGSepLjk02TtpQglIqU9JVflcmWNJaflwqXdZfgmEyYuJkkmZCZ/JpomtWbQpuvnByciZz3nWSd0p5Anq6fHZ+Ln/qgaaDYoUehtqImopajBqN2o+akVqTHpTilqaYapoum/adup+CoUqjEqTepqaocqo+rAqt1q+msXKzQrUStuK4trqGvFq+LsACwdbDqsWCx1rJLssKzOLOutCW0nLUTtYq2AbZ5tvC3aLfguFm40blKucK6O7q1uy67p7whvJu9Fb2Pvgq+hL7/v3q/9cBwwOzBZ8Hjwl/C28NYw9TEUcTOxUvFyMZGxsPHQce/yD3IvMk6ybnKOMq3yzbLtsw1zLXNNc21zjbOts83z7jQOdC60TzRvtI/0sHTRNPG1EnUy9VO1dHWVdbY11zX4Nhk2OjZbNnx2nba+9uA3AXcit0Q3ZbeHN6i3ynfr+A24L3hROHM4lPi2+Nj4+vkc+T85YTmDeaW5x/nqegy6LzpRunQ6lvq5etw6/vshu0R7ZzuKO6070DvzPBY8OXxcvH/8ozzGfOn9DT0wvVQ9d72bfb794r4Gfio+Tj5x/pX+uf7d/wH/Jj9Kf26/kv+3P9t//9wYXJhAAAAAAADAAAAAmZmAADypwAADVkAABPQAAAKW3ZjZ3QAAAAAAAAAAAADAQAAAgAAAFYBRQJBAzgEGAUKBggHMAhZCYMKvwwGDWEOtxAKEWwSyhQ1FZwXABhrGc4bNhyQHesfQCCPIdEjCiQ5JVkmaydtKFwpQiodKvErxiyZLWsuPS8NL98wrzGAMlEzITPtNLk1hTZRNxw35TiuOXg6QTsKO9M8nD1kPiw+8j+3QHxBQkIMQt9DvkSqRZ1GkUd+SGFJP0oYSvFLzEyuTZ1OoU+8UONSBVMZVBpVEFYDVvxX+1kAWglbDlwNXQRd9V7iX9BgwGGzYqZjmWSKZXlmZ2dUaEJpNGoqayFsGW0PbgNu9G/icNBxu3Kkc450f3WGdrV4BHllesB8AH0mfjp/SYBbgXWCjoOVhHuFNIXjho+HUIgliQuKAIsCjBGNKI4+j06QV5FaklqTWJRWlVSWUZdOmEuZR5pCmz6cOZ0zni2fKqAwoUuig6PgpUmmrKfrqRGqJasxrDutRK5Nr1ewX7FosnCzd7R+tYK2hbeIuIu5j7qVu5y8pr20vsW/18DgwdbCr8NmxBjEyMWWxnfHZshdyVfKUctLzEfNSM5Uz3HQoNHZ0wvUL9VD1knXRdg42SXaDtr52+jc2N3B3qPfg+Bn4VXiTuNN5E/lT+ZK5znoF+jg6YrqNOrg66jseu1I7gjuqe9H7+Pwo/F48l7zT/RN9Wr2wviH+rf9RP//AAAAVgFFAjEDBAPpBOAF4wbwCAMJNgpoC5wM4A4qD3cQxhIZE3kU1BYyF4IY3Ro1G4Yc0B4aH1ggkSG8Itwj9ST2JeomzSejKHIpPioIKtQrnyxqLTUt/i7GL44wVzEfMecyrjN2ND01ATXFNoo3TzgTONY5mTpbOx073DycPVw+GT7XP5dAW0EmQftC1UOxRIxFZUY8RxFH5ki8SZVKdktlTGJNaE5vT21QYlFPUjtTKlQbVQ5WAlb2V+dY1lnDWq5bm1yKXXpeaV9YYERhL2IYYwFj6mTVZcRmtWemaJZphGpva1lsQG0nbg1u9G/hcN5x9HMhdF91mXbBd9h443nsevl8C30efih/IIAGgN+BtYKPg3KEXoVVhliHaYiDiZ2KrYu1jLaNtI6xj62QqZGlkqCTm5SVlY+WiZeCmHmZb5pnm2mcgJ2/nymgqKIno5Kk06X5pw6oGqkjqiqrMaw3rT6uRK9NsFmxbLKGs6O0vrXRtt636LjzugO7F7wrvTu+QL83wCHBAsHiwsfDtcSnxZvGkMeFyHrJcsp0y4nMvM4Wz33Q3dIa0z/UVNVm1oDXpdjP2fTbEtwt3UzecN+X4Lvh0uLe4+Lk6+YF5znogenR6xHsMO017ibvD+/48Obx1/LK87n0ofV/9lb3J/f2+Lz5evo7+wz8RP3p//8AAABWAS4B6wKdA14EKQUHBfEG6QfqCOIJ8QsKDCUNQQ5aD4EQrBHREv8UJRVFFmoXhRifGbQaxRvIHMYdux6hH3ggQiD6IaQiSyLrI4gkJyTCJV4l+SaUJzAnyihnKQcppypIKucrhiwoLMUtYy4ALp0vPC/YMHUxEjGvMkwy6DODNB40uDVSNew2hTcfN7c4UDjoOX86FjqrO0E70jxjPO49ez4HPps/ND/WQHpBHkG4Qk9C2UNoQ/9EokVQRglGw0d8SDRI6kmiSlxLGEvWTJVNU04PTslPg1A7UPRRr1JrUydT5FShVV1WGVbUV49YSFj/WbVabFskW91cll1OXfZelF8lX7RgQWDaYXhiImLYY5lkaGVHZjdnOWhJaWFqbWthbD9tEG3cbqVvbXA1cPxxw3KKc1B0FXTbdZ92ZHcmd+Z4nnlFedx6bHsUe9N8u32+fsR/w4C5gamCloODhG+FW4ZFhyqIBYjUiZmKWoski/uM4I3NjrmPoJB+kVuSOpMak/mU1pWylpeXjZiSmaGas5vGnNid6p77oA2hIKIzo0ikXKVvpn6niaiMqYCqYas3rA6s8q3trvmwDLEesjKzULR7tbS2+Lg5uXC6mbuwvLi9u77Jv/XBR8K5xFPF9ceWyTPK1MyNzmDQSdJB1ELWbNkO3Ovizur19Pn//wAAbmRpbgAAAAAAAAY2AACTgQAAWIYAAFU/AACRxAAAJtUAABcKAABQDQAAVDkAAiZmAAIMzAABOuEAAwEAAAIAAAABAAMABgALABEAGAAfACcAMAA6AEQATwBaAGYAcwCBAI8AngCuAL4AzwDhAPQBBwEcATEBRwFfAXcBkQGsAcgB5gIGAigCTAJzAp0CywL/AzgDdgO5A/4ERwSTBOIFMwWIBd8GOgaZBvsHYQfKCDcIpwkbCZEKCwqJCwoLkAwaDKcNNA28Dj0Oug84D7sQSBDbEXQSEBKtE0QT0RRUFNEVTxXSFl8W+BeZGD0Y3hl9GhsauhteHAkcvB12HjQe8x+yIHIhNSH8IscjliRoJTwmDibgJ7MoiCliKkErJiwOLPst7i7kL9UwtTF7MjEy3jOINDU07zW4NpI3eThkOUw6MDsXPA49Lj6bQCtBjULJQ+9FCEYVRxlIHEkkSjRLTkxxTZhOxE/yUSNSV1OOVMdWBFdEWIZZzFsWXGJdql7kYAZhEWIGYvVj5WTcZepnD2hLaZVq52w8bZRu7nBKcapzDHRxddp3Rni4ei17pn0gfpuAFoGRgwqEgYX1h2qI64qLjG2OtZERkxqU7ZapmF+aFpvQnY2fR6D1oo+kFKWIpvaoa6nyq5CtRa8RsPGy5rTotuu457rjvPG/F8FDw17FYMdTyT/LL80pzzbRbtP41wTaCdyf3xPhvuUO6HzrQe2v7/vyNvRG9gr3jfjK+ej65fvZ/LT9kP5i/zD//wAAAAEAAwAHAAwAEgAZACEAKgAzAD0ASABUAGAAbQB7AIkAmQCpALkAywDdAPABBQEaATABRwFfAXkBlAGwAc4B7QIPAjMCWgKDArIC5QMfA18DpAPsBDYEhATVBSkFgQXcBjoGmwcAB2gH1QhFCLgJLwmqCikKrAs0C78MUAzjDXgOCQ6VDyEPsBBDENsRdxIWErcTVhPtFH0VChWYFi0WyhdvGBcYwBlpGhQawBtvHCQc3B2ZHlgfGB/ZIJ0hZCIwIwAj1CSrJYQmXCc0KA0o6inMKrMrnyyPLYMufC90MGMxQDIMMs4zijRLNRc18TbZN8c4tjmiOow7ejx2PYk+uD/3QTNCZEOLRKZFtka7R7tIvUnJSuFMAk0qTlZPhVC3UexTJFRfVZ1W3lgiWWpatlwHXVdeml/FYNFhwmKpY4hkaWVSZkhnWWiCacBrDWxibbxvGnB6cd1zQnSpdg93cHjLeiF7dnzQfjV/pIEbgpSECoV7huyIYYnii3qNMI8CkN2SsZR2ljSX8pmxm3WdOp76oKaiMqOdpOemJ6doqLCqF6ucrT2u7bCZsjmzzrVhtvu4orpRvAC9qb9MwPHCn8RixjrIIcoEy83Nds8G0IrSDNOi1V/XTdls26fd5+Af4lDkgea+6RfrkO4m8M3zlPaM+Un7Mvye/eT+8f//AAAAAQAEAAkAEAAYACEAKwA2AEMAUABeAG0AfQCPAKEAtADIAN4A9AEMASYBQAFdAXsBmwG9AeECCQIzAmEClQLQAxUDZQO9BBwEgATqBVkFzQZDBr0HPQfBCEwI3QlzCg8KsAtWDAMMtw1xDjEO+A/FEJkRdRJZE0kUShVRFkoXNxgpGTUaXxt5HHQdYh5UH04gTSFNIkwjTSRSJV8mcyeNKKopyCrpLA0tNy5mL5ow1jIaM2Q0rzX7N1A4zTqJPFk+BT+QQPxCS0ODRKZFt0a8R75Izkn7S0tMtk4uT6xRLlK2VENV1ldtWQparFxWXhFgC2JfZFtl5Gc7aItp5mtSbMxuTW/ScVty6HR7dh533nnGe8B9nX9VgPqCoYRWhh+H8Im9i4yNZo9HkRmSy5RmlfaXg5kRmqKcNp3Nn2ahAaKcpDil1ad1qRuqyKx/rkewL7JGtH+2oriPulm8F73Xv5vBWcMHxKXGNMe7yUXK18x4zi/QA9Hw0+jV0deR2Sfandv+3UXeit/L4Q/iVeOg5OnmMedr6KDpyOrq7AXtHO4w70TwV/Fh8mTzUPQi9PX1jfYc9qr3Ofea9/n4V/i2+Rb5cvm2+fv6QPqE+sn7DvtT+5f70PwI/ED8ePyx/On9If1Z/ZL9yv39/jH+ZP6X/sv+/v8x/2X/mP/M//8AAHNmMzIAAAAAAAEMQgAABd7///MmAAAHkgAA/ZH///ui///9owAAA9wAAMBsbW1vZAAAAAAAAAYQAACc8AAAAADLuPZMAAAAAAAAAAAAAAAAAAAAAHZjZ3AAAAAAAAMAAAACZmYAAwAAAAJmZgADAAAAAmZmAAAAAiZmAAAAAAABOuEAAAAAAAIMzAAA/8AAEQgBcwLbAwEiAAIRAQMRAf/EAB8AAAEFAQEBAQEBAAAAAAAAAAABAgMEBQYHCAkKC//EALUQAAIBAwMCBAMFBQQEAAABfQECAwAEEQUSITFBBhNRYQcicRQygZGhCCNCscEVUtHwJDNicoIJChYXGBkaJSYnKCkqNDU2Nzg5OkNERUZHSElKU1RVVldYWVpjZGVmZ2hpanN0dXZ3eHl6g4SFhoeIiYqSk5SVlpeYmZqio6Slpqeoqaqys7S1tre4ubrCw8TFxsfIycrS09TV1tfY2drh4uPk5ebn6Onq8fLz9PX29/j5+v/EAB8BAAMBAQEBAQEBAQEAAAAAAAABAgMEBQYHCAkKC//EALURAAIBAgQEAwQHBQQEAAECdwABAgMRBAUhMQYSQVEHYXETIjKBCBRCkaGxwQkjM1LwFWJy0QoWJDThJfEXGBkaJicoKSo1Njc4OTpDREVGR0hJSlNUVVZXWFlaY2RlZmdoaWpzdHV2d3h5eoKDhIWGh4iJipKTlJWWl5iZmqKjpKWmp6ipqrKztLW2t7i5usLDxMXGx8jJytLT1NXW19jZ2uLj5OXm5+jp6vLz9PX29/j5+v/bAEMAAgICAgICAwICAwQDAwMEBQQEBAQFBwUFBQUFBwgHBwcHBwcICAgICAgICAoKCgoKCgsLCwsLDQ0NDQ0NDQ0NDf/bAEMBAgICAwMDBgMDBg0JBwkNDQ0NDQ0NDQ0NDQ0NDQ0NDQ0NDQ0NDQ0NDQ0NDQ0NDQ0NDQ0NDQ0NDQ0NDQ0NDQ0NDf/dAAQALv/aAAwDAQACEQMRAD8A/USpPMHl+WUUnOd/8QphGDjrj071K0aYZlccYwvOTn0+lAEXBPpSU5iW+Y9/6U2gB28hdnGM56c0g9e1JSg4BHPNACUvbr0oJyAMdPSg7eMZ96AAgDGDnikopR1FACUoz2peRlPf68im0AOUMckdv60gB5x6c/SnOysF2qFIGDjv70iqzZ2gnAycdgKAHtu3fvWJKjHXOMdBUVPHl/xbhx255/wpuec/zoAXA428nvRxjA6juO9HBGSefTFICR0OM8UABGADkHP6UlFOIGcA/j0oAbUzL5WGSRXyOcds9uah+tFAC0HHYYp8sbROY2IJH905HPvTcNjPbNACDHekp2AADnOe3pTaAFGKlZ5J8ZUEqOoGDgetQ0UAFKOaSnAZ4yB35oAbSq20hsA47HkUlFACk5JbHU9ulObGcAjgdRxmm849qApb7oJxzx6UABwfugj9aMDgL1xzS9jgYptAC89KUja2G7HnFBGFU4655zTcUAKepx0oAycDvQNuRnOPagnJJxj2oACCpIPUUEYpcYUNkdcY70mD9e9ACUds0UuBjNACe1LxjOefSjpx+tJQAU4rhVbj5s/pTaUEDqM8UAJSgbuBySeBR0PNHf5QR6UADKyEq4KkdQetJT8lnzJlvX1poAwcnH9aAEp7uGxhQpAwcd/emUuDjd2zigBck4UngHjPQZoIKNwefUUmegPQf1pUwGBPAHpzQAmCACRwelJTsljjOB+lIcdqAFdy7bm64A/Km9eKKeSG5wBgAce1AB82MckKenak2nGe2abS0AKxVsYXbgYOO59aU+XtBGd3cdqaCAeRmkoAKersqlR3IOe4I9KaDgg4Bx2PSpJHjbJRNmTng5x6j6UANJDbQq4IGD70yiigAFLggbu3TNKQwO09vxpM/Lt980AHrgZFJUiyPHuCEgNwfcVHQAUZzzSjjkdRTi+SWxyc9fegAP3RwAP1pMAng9s803jvRQAU75Q3qPWlYBTwQwI4NMoAeSnbOQep70oZPn3rnI+XBxtPrUdL2oAVSoBzyeMelP8AkfLcRgY+Xk5+lRUUALg4yOmcZo7daMkDHanu8bBQibMDk5JJNADQQGyB+BpOeB+VJRQA9k2D58gkAj0INNyOS3JPT608pK23IJyPl78U0MR2B+vNACe9HINJ1OaUAmgAJOSemfSvonwJ/wAirY/9tv8A0a9fOwBJwOtfRPgT/kVbH/tt/wCjXoA//9D9SJJHlIZz0UKMdAB0pnJ/Ckp4kYY2/LjjI4NADRjBznPalYhjlVCjAGASfx59abT1UMwHIB9Bk/lQAyiil7ZoASlGMjPTvQc9DSUAOVS7hFwMnAycD8TSHIOD24pKKADvSnp1yaXd2wDgY/XNLlGcsw2rnOF5x9M0AM60U5l2nGQfcUbhndtHGOO1ADaKXqeO9KqMzbVGT6UAIPTOBQeDgHPvTtj+nU4/Gh0aNtjDBHUGgBmOKeFeQqB8xPAGeeKZ1p+1dmQ3zZ+7jt65oAGYMqrtVSvBI6t9eaFLKDg4DDaaZRQAoJByOCKCSxyxyT3NdPZeDfEd9EJ4rMqjDI8xghI9cHmrg8A+J8EG1TPr5q8frQBxdFdr/wAK/wDE5bBgTGcZ81enr1pP+EA8T/8APun/AH9T/GgDjDwcA596Su0/4QLxSQB9mTj/AKaJ/jSf8IB4o/59k/7+p/jQBxmCelFdp/wgPijr9mT/AL+p/jSf8IB4o/590/7+r/jQBxoGc8gY9adtGzduGc429/r9K7D/AIQDxR/z7J/39T/Gj/hAPFH/AD7J/wB/U/xoA40E4xzjuKUkA5QkD9a7H/hAPFH/AD7J/wB/U/xo/wCEB8UH/l3T/v6n+NAHHgLxk8Ec4HINN4x712f/AAgHiftbp/39T/GgeAvFIIZbdAR0IlX/ABoA4uncLwcNx1B6V2a/D7xOxwYI1HqZV/pmlb4f+J0bCwI3oRKo/maAOJpQM98V2f8AwgHig/8ALunH/TVP8aT/AIQDxR/z7J/39T/GgDkDHhCxZchtu3PzH3HbH41HXaHwF4oIANsnH/TRP8aT/hAPFH/Psn/f1P8AGgDjtvyhsjntnn8qbXaf8IB4n/590/7+r/jTo/AnimNtwtoz7GRCD9RmgDi2AVsAhvcUi5JwBknoK7M+AfE5/wCXaMfSVf8AGl/4QLxQF2/Zo/X/AFiZ/PNAHF4NJXZ/8IB4o/59k/7+p/jR/wAIB4o/59k/7+p/jQBxoBJwBk+1OR3jO5CVYcZHB5rsV8BeKlOVt1B9pVH9aT/hAPFH/Psn/f1P8aAOOBywLfNk85PX6mhsBjjHXtyPwPeux/4QDxR/z7J/39T/ABpT4A8T54tkx7yp/jQBxg5PJx70HrxzXZf8IB4o/wCfZP8Av6n+NH/CAeKP+fZP+/qf40AcZRXZ/wDCAeKP+fZP+/qf40o8A+J/+fZD/wBtU/xoA41lK8HGfTrim12g8BeKR923QfSVf8aT/hAPFH/Psn/f1P8AGgDjSCOtJXZ/8IB4o/59k/7+p/jR/wAIB4o/59k/7+p/jQBxlFdn/wAIB4o/59k/7+p/jS/8IB4n5zbp04/ep1/OgDi6K7P/AIQDxP8A8+yf9/U/xo/4QDxR/wA+yf8Af1P8aAOMortP+EA8T4/490/7+p/jSf8ACAeJ+9sn/f1P8aAOM+tKeK7YeBPFPl+X9liIznPmJkfjmo/+ED8UJ8/2VGxzjzFOf1oA41QWIVep4FJVu9sruwnNvfQtDJ12sMfl7VXCgjjk4JI9qAGkljljknuaSnYwDmm5xzQAUVu6b4c1rWF8ywtnePpvYhV/AnGa1v8AhAPFH/Psn/f1P8aAOMors/8AhAPFH/Psn/f1P8aP+EA8Uf8APsn/AH9T/GgDjVUsQqjJPYU5ADyxG0cnkAke2eprsR4C8UqQy26gjkESr/jQPAPigHP2ZP8Av6n+NAHHFlDEoOOwbnim8V3H/CD+KQhQWkIJOS29C388D8qi/wCEA8UH/l2T/v6v+NAHGEAHAOR69P50Y712Y8A+KAQRbJkf9NU/xpP+EB8Uf8+yf9/U/wAaAOOR2jYOuMj1AP6Gmnk5rtf+EA8THA+zID3JlTH86Q+APFAOPs6H381f8aAOLp6qMbnOFzjjBP5ZFdgfAPijP/Hsn/f1P8aP+EB8Uf8APsn/AH9T/GgDjjkHGMUhOa7M+AfFH/Psn/f1f8aUeAPE5LZgQDB/5aqcnsOtAHHRuqMCyBwOoJIB+uKYx3MTgLk9B0FdmfAHigcfZ0Pv5q/40L4A8TZG63UDviVP8aAOLBIORX0V4E/5FWx/7bf+jXryk+AfE/a2T/v6v+Nex+FNPutL0C1sb1Qk0XmblBDAbpGYcjjoaAP/0f1GxwORzSHAPBzSU7djoMHGDnnNADacCVYEHpyMGm05QCwDHaPXrQAhYsSzHJPU0uB2OeMmkG3I3Zx3x1pXKFj5YIXsCcmgBDjtSUUUALSUuTSUAFFFLx0/WgBKcFGwtuGQcbe5oABJz09hmlDkKy4HzY5xyMeh7UAIm7cNp2nselJjIyaDjoKAM0AJzjGePTtTgRkbskD09KdHG0riNMZPqcAfnSbfk37hndjb36dfpQA0ngDHTv3pKU4GNpzx+tLkA5XIoASvQfh1pEGo6pNeXKh0slQqp5BkkJwT9Ap/GvPa9b+Ff/MV+tv/ACkoA9dqo99ZRsUeZAR23CqeuXElvp7tEdrMQufTNedUAen/ANpWH/PxH/30KP7SsP8An4j/AO+hXmGBRgUAen/2lYf8/Ef/AH0KP7SsP+fiP/voV5hgUYFAHp/9pWH/AD8R/wDfQo/tKw/5+I/++hXmGBRgUAen/wBpWH/PxH/30KP7SsP+fiP/AL6FeYYFGBQB6f8A2lYf8/Ef/fQo/tKw/wCfiP8A76FeYYFGBQB6f/aVh/z8R/8AfQo/tKw/5+I/++hXmGBRgUAen/2lYf8APxH/AN9Cj+0rD/n4j/76FeYYFGBQB6f/AGlYf8/Ef/fQo/tKw/5+I/8AvoV5hgUYFAHp/wDaVh/z8R/99Cj+0rD/AJ+I/wDvoV5hgUYFAHp/9pWH/PxH/wB9Cj+0rD/n4j/76FeYYFGBQB6f/aVh/wA/Ef8A30KP7SsP+fiP/voV5hgUYFAHp/8AaVh/z8R/99Cj+0rD/n4j/wC+hXmGBRgUAen/ANpWH/PxH/30KP7SsP8An4j/AO+hXmGBRgUAen/2lYf8/Ef/AH0KP7SsP+fiP/voV5hgUYFAHp/9pWH/AD8R/wDfQo/tKw/5+I/++hXmGBRgUAen/wBpWH/PxH/30KP7SsP+fiP/AL6FeYYFGBQB6f8A2lYf8/Ef/fQo/tKw/wCfiP8A76FeYYFGBQB6f/aVh/z8R/8AfQo/tKw/5+I/++hXmGBRgUAen/2lYf8APxH/AN9Cj+0rD/n4j/76FeYYFGBQB6f/AGlYf8/Ef/fQo/tKw/5+I/8AvoV5hgUYFAHp/wDaVh/z8R/99Cj+0rD/AJ+I/wDvoV5hgUYFAHp/9pWH/PxH/wB9CraOkihkIYHoQcivJcCum8NXEi3L22coy7sehFAFnxpo8GqaHcSMo8+1jaaJ+42DJH0IGK+dBzX1LrXGj35/6dpv/QDXyyhIUY7igBa2vDumJq+s21hIcRu25/dV5I/HpWLXXeBf+RntPpJ/KgD6GihigjWGFQiIAFUDAAFMluraA4mlVD6E4NPlfy4nk67VLfkK8pklknczTEs78kn3oA9N/tKw/wCfiP8A76FH9pWH/PxH/wB9CvMMCjAoA9P/ALSsP+fiP/voUf2lYf8APxH/AN9CvMMCjAoA9P8A7SsP+fiP/voUf2lYf8/Ef/fQrzDAowKAPT/7SsP+fiP/AL6FH9pWH/PxH/30K8wwKMCgD0/+0rD/AJ+I/wDvoUf2lYf8/Ef/AH0K8wwKMCgD0/8AtKw/5+I/++hR/aVh/wA/Ef8A30K8wwKMCgD0/wDtKw/5+I/++hR/aVh/z8R/99CvMMCjAoA9P/tKw/5+I/8AvoUf2lYf8/Ef/fQrzDAowKAPT/7SsP8An4j/AO+hVqOWOZBJEwZT0I5BxXk2BXoug/8AIKg/4H/6GaAP/9L9Rce9JSjHekoAUY70AE9KUMfu9AeDSh2j3BDgMCpI7g0ASRJESDcMUj9VGWP0Hf8AOom25IXkZ4J6kUiqWOFGSaQjBwaACil4yM9KQ9eKACiiigBQSM4xyMcjNJRRQAUoxzk49OOtJRQAAE9KcpTBDA+xB6UrhN7CMllz8pIwSKaMZ+bp7UAGSV29gc496SinDB6kDH60AJxjpz60pRgocggN0OODighegyTnj0xSHd90547elACfSvW/hX/zFfrb/wApK8k+tet/Cv8A5iv1t/5SUAd/4j/5Bx/31/nXA133iP8A5Bx/31/nXA0AFFFFABRRRQAUUUUAFFFFABRRRQAUUUUAFFFFABRRRQAUUUUAFFFFABRRRQAUUUUAFFFFABRRRQAUUUUAFFeU/FL4iaj4MPh/w54V0xNa8W+L7yay0Wxml8m3AtYvPurq5kAJSC2iwWwCzFgo68eYa743+OPwkax8T/E6bw74h8J3F3BZ6m+iW1xaXWl/anEaTgTO4nhV2AfhWAOa6qWEnNJprXZdX6HHVx1OnJppu27S0Xr8nfrofUtFKQAcAgjsR0I7H8aSuU7AooooAKKKKACiiigAooooAK3vDf8AyEj/ANczWDW94b/5CR/65mgDq9a/5A1//wBe03/oBr5bjXcAMgcdT0r6k1r/AJA1/wD9e03/AKAa+WV+6B7UAO9q67wL/wAjPaDtiT+Vcjz0Paut8C/8jPafST+VAH0Hdf8AHtL/ALjfyNeUr90fSvVrr/j2l/3G/ka8pX7o+lAC0UUUAFFFFABRRRQAUUUUAFFFFABRRRQAUUUUAFFFFABXouhf8gqD/gf/AKGa86r0XQv+QVB/wP8A9DNAH//T/USil4+tJQA5chgRgkevSguxUIT8q5wPTPWm0UAOAAYbsge3WkOM8UoDPkjJwMn6UKwGOB1zk80AIDgg+lOwMFmOPYdef6U08nNPVY9u52x6ADLf4YoAjpcd6McZpKAHI7RsHQ4I5FK0jO/mNjP04/KmUY4zQAUoJGcd+KSnNtz8hJHvQAmaCdxz6+lIKKACiiigAoJJOTRRQAV638K/+Yr9bf8AlJXklet/Cv8A5iv1t/5SUAd/4j/5Bx/31/nXA133iP8A5Bx/31/nXA0AFFFFABRRRQAUUUUAFFFFABRRRQAUUUUAFFFFABRRRQAUUUUAFFFFABRRRQAUUUUAFFFFABRRRQAUUUUAcvqfg7QdY8WeH/Gt/E76r4Yi1GHTZA5VI11WOOK53IOGLJGoGenNePftC+d4osvDfwa04gXfjrVEjnkP/LDTNOIuryXHc7VCD3avomvH/izfeDfBK6T8YPFGnXd5N4VmNtBPaS7PssOrMltNLKrMqvEoILZzgDIrrwtR+1j1a29dbfizixlKPsp20vZyflon8+VWR7BhFAWMYRQFUeiqMD9BRRlDzGwdCAVZTkMp5BB9CORRXIdoUUUUAFFFFABRRRQAUUUUAFb3hv8A5CR/65msGt7w3/yEj/1zNAHV61/yBr//AK9Zv/QDXy3hQAUyVwOT645r6k1r/kDX/wD17Tf+gGvllSdgHagB2fXmut8C/wDIz2n+7J/KuWR4wAskYYDuDtP588V1Xgcg+KbUgYGJMD04oA+grr/j2l/3G/ka8pX7o+lerXX/AB7S/wC438jXlK/dH0oAWiiigAooooAKKKKACiiigAooooAKKKKACiiigAooooAK9F0L/kFQf8D/APQzXnVei6F/yCoP+B/+hmgD/9T9Ry5JJKrz7cD6elMxilGewzQAeoGcdaAE7U4ktjgf1P19TTacvLc5/CgBtFSKQVKE7R16Z5FMI7jmgBDzzRTy53DODtGBxwRTKACig8UdeKACipMnAickAHj0GetNcKrEKdw9cYzQA0dfWnfLg+vanfIUCqDu6kn+VR0AKCRkAkZ4PvSU85kJbAGBk44plABSjGRngd6SigAp2QMFcgjvnvQVI5Ppn86Qkk5NAAcnk969a+Ff/MV+tv8AykrySvX/AIWoFTUnDBt3kZA6rjzOtAHd+I/+Qcf99f51wNdf40vhp+im4ZC/7xBgHHU15L/wlUf/AD7N/wB9CgDq6K5T/hKo/wDn2b/voUf8JVH/AM+zf99CgDq6K5T/AISqP/n2b/voUf8ACVR/8+zf99CgDq6K5T/hKo/+fZv++hR/wlUf/Ps3/fQoA6uiuU/4SqP/AJ9m/wC+hR/wlUf/AD7N/wB9CgDq6K5T/hKo/wDn2b/voUf8JVH/AM+zf99CgDq6K5T/AISqP/n2b/voUf8ACVR/8+zf99CgDq6K5T/hKo/+fZv++hR/wlUf/Ps3/fQoA6uiuU/4SqP/AJ9m/wC+hR/wlUf/AD7N/wB9CgDq6K5T/hKo/wDn2b/voUf8JVH/AM+zf99CgDq6K5T/AISqP/n2b/voUf8ACVR/8+zf99CgDq6K5T/hKo/+fZv++hR/wlUf/Ps3/fQoA6uiuU/4SqP/AJ9m/wC+hR/wlUf/AD7N/wB9CgDq6K5T/hKo/wDn2b/voUf8JVH/AM+zf99CgDq6K5T/AISqP/n2b/voUf8ACVR/8+zf99CgDq6K5T/hKo/+fZv++hR/wlUf/Ps3/fQoA6uopoILmJoLmKOaJxh45UWRGHoVYFSPqK5n/hKo/wDn2b/voUf8JVH/AM+zf99CgDq/8+lFcp/wlUf/AD7N/wB9Cj/hKo/+fZv++hQB1gBPQZpK/K39qb9oTVdV8dv4N8FazdaLH4PlSO6mtpjGG1R1jm8ximDJHagiKSM8Hc55xWva/t+eJbXT7ptW8NaVqN3AABNZXbRQu+OW8tgWCk9MdOle9T4dxlSjCtTV+bW21vvPia/H+U4fF1cJiJOLg7Xs2n32vs9D9O6K/JxP+CiPjZ5i0nhPSo4fRJpXcfmADXS6f/wUMvhKP7Q8L2c8WRuWK4kgkI/2d6lCfYmqlwxmCV+T8URHxHyGU+T2r/8AAZW/I/T6ivA/hh+0P4O+K2ny3OgQzW97ahTd6fdFVuIQ/RsA4eM9nXIr1H/hKo/+fZv++hXiVqM6U3TqKzR9jhcXRxNJV8PJSi9mjq6K5T/hKo/+fZv++hR/wlUf/Ps3/fQrI6Dq63vDf/ISP/XM15t/wlUf/Ps3/fQrrfBeuJqGsm3WEofJZsk56YoA9H1r/kDX/wD17Tf+gGvllPuj6V9Ta1/yBr//AK9pv/QDXy3GoZeWC4XP19qABdufmzjvjrXXeBsjxPaYPBEn8vSuQrrvAv8AyM9p9JP5UAfQd1/x7S/7jfyNeUr90fSvUr9/KsbiTGdkTtj1wpNeAp4qiKKfszdB/EKAOtorlP8AhKo/+fZv++hR/wAJVH/z7N/30KAOrorlP+Eqj/59m/76FH/CVR/8+zf99CgDq6K5T/hKo/8An2b/AL6FH/CVR/8APs3/AH0KAOrorlP+Eqj/AOfZv++hR/wlUf8Az7N/30KAOrorlP8AhKo/+fZv++hR/wAJVH/z7N/30KAOrorlP+Eqj/59m/76FH/CVR/8+zf99CgDq6K5T/hKo/8An2b/AL6FH/CVR/8APs3/AH0KAOrorlP+Eqj/AOfZv++hR/wlUf8Az7N/30KAOrr0XQv+QVB/wP8A9DNeH/8ACVR/8+zf99CvZfCl0L3QLW6ClA/mfKTnGJGH9KAP/9X9RlDfeXPHce9IDg560o28ZbqeQByP6UnHNAARjuD9KSilySAD2oAXlCQQD29aTkfLninrsPUc5zycLj+eaYNufmzj2oASiipJGQn92pVcDgnPPfn3oAjopRxSfSgAoopwwW+Y4B746UAITk5xj6UlKfTOQKX5NvQ7s9c8Y+n/ANegBtFKcdqQ47UAFFFFACkg9BjnpTlZArBlyT0OelMyRT87GBQgkc5x/jQA0jFetfCv/mK/W3/lJXkzBsByOGzg+uOtes/Cv/mK/W3/AJSUAdn4wsor/RzBMWC+Yh+Xg8GvK/8AhGLD+/L/AN9CvYPEf/IOP++v864GgDnf+EYsP78v/fQo/wCEYsP78v8A30K6KigDnf8AhGLD+/L/AN9Cj/hGLD+/L/30K6KigDnf+EYsP78v/fQo/wCEYsP78v8A30K6KigDnf8AhGLD+/L/AN9Cj/hGLD+/L/30K6KigDnf+EYsP78v/fQo/wCEYsP78v8A30K6KigDnf8AhGLD+/L/AN9Cj/hGLD+/L/30K6KigDnf+EYsP78v/fQo/wCEYsP78v8A30K6KigDnf8AhGLD+/L/AN9Cj/hGLD+/L/30K6KigDnf+EYsP78v/fQo/wCEYsP78v8A30K6KigDnf8AhGLD+/L/AN9Cj/hGLD+/L/30K6KigDnf+EYsP78v/fQo/wCEYsP78v8A30K6KigDnf8AhGLD+/L/AN9Cj/hGLD+/L/30K6KigDnf+EYsP78v/fQo/wCEYsP78v8A30K6KigDnf8AhGLD+/L/AN9Cj/hGLD+/L/30K6KigDnf+EYsP78v/fQo/wCEYsP78v8A30K6KigDnf8AhGLD+/L/AN9Cj/hGLD+/L/30K6KigDnf+EYsP78v/fQqSDwxYGeMbpTl14yOeRW9TkbY4b0P0/WhjW5/Px4/0zV/E/xI8RaF4ct31nULrX9SRRaoZbi5EN1JsnYYG1WikADg7WQAnGM1geMfgv8AE/4faTHrvi7QZtPsJXWLzy8ciq7fdV9jMVJ7Z4r9RPBPwP8ACv7PXiiSG48Ui4i8XajBbaPFcQiC9mmjjmkW0kmQkS/KjOdgjEmwF/7pxv2w7yeL4PvY224yX2oW0WFBbcqksQcA9QPSvvqPEzli6eGoRXs9Fd9dNX5WPzKfg/Qjw1iM9zCrJYhKUlCNmk7tRTdm25aPS2jXU/IXBGPfpUiwuwYjqpUMDxjdwM+nPHNSErHlGUmYNyxPGPQqV/XI+lQl3yCSc4x17elfbH87vR2Z9Mfsmapc2/xw8OQz3YtbFVu0vpZZBFHHZCF3k8xmIARSoYZ4Br9tE8N6c8aSJK7pIqurK4ZWVhkMpHBBHII4NfzmeGvEOo+FNcs/EOkSGK8sZUlhcHoVIyGHRlZcqyngg1/QV8GrrRtS+Geg6z4ftDp9jqlv9tSyDs0VtJKx82OENnZFvBKoOBnivz/jDCNVIYjo1b82fu/hPmcJ4argH8SfN8nZfnv8jrP+EYsP78v/AH0KP+EYsP78v/fQroqK+LP1053/AIRiw/vy/wDfQrqvB2i2thrBnhZy3lMuGORg4qvW94b/AOQkf+uZoA6vWv8AkDX/AP17Tf8AoBr5ZT7o+gr6m1r/AJA1/wD9e03/AKAa+WVPyge1ADsd66/wKceJ7UZ/hkHT2rkBjvXW+Bf+RntPpJ/KgD6AvkEtlcRt0eJ1OPdTXhK+GLDao3y9B3H+Fe83X/HtL/uN/I15Sv3R9KAOe/4Riw/vy/8AfQo/4Riw/vy/99CuiooA53/hGLD+/L/30KP+EYsP78v/AH0K6KigDnf+EYsP78v/AH0KP+EYsP78v/fQroqKAOd/4Riw/vy/99Cj/hGLD+/L/wB9CuiooA53/hGLD+/L/wB9Cj/hGLD+/L/30K6KigDnf+EYsP78v/fQo/4Riw/vy/8AfQroqKAOd/4Riw/vy/8AfQo/4Riw/vy/99CuiooA53/hGLD+/L/30KP+EYsP78v/AH0K6KigDnf+EYsP78v/AH0K9e8L2sdnoVtbRElU8zG7ry7H+tcHXouhf8gqD/gf/oZoA//W/Ud5JJMeYxbaMDPYUylOPWnbiEKYHXOcc0AMpR35xS4XbnPzZ6Y7U2gBRjPzZx7UoIzyMjH0pSjBjGw2sOoPFKrDbhunPTrQBHSkEdaUAHOWAwM89/am0APdy5BOOBjgUyg0UAFOGMHjJ/lTkRnZUA5bpngU070JQ8diPpQAFgVAwBjuOp+tNpWYsxY9TSAZ4oAKXFAz1HaigBKKKKACiil2nG7Bwe9ACV638K/+Yp9bf+UleS8YGB9a9a+Ff/MV+tv/ACkoA7/xH/yDj/vr/OuBrvvEf/IOP++v864GgAooooAKKUdRXjOtfEHXNO1a7sbeO3McErIpZSTgevNAHstFeD/8LO8Rf88rX/vg/wCNejeCvEF94isrq5vljVoZljXyxgYK55oA7KiiigAooooAKKKKACiiigAooooAKKKKACiiigAooooAKKKKACiiigAooooAKKKKACiiigAooooAr3fgC18VC11aYwGexlL2vnwLIYZQrJ5kbH5kcq7LuXnaSOhIrwLxjp1xpV8dZ1yWKaDRLwPFaqu6EIgIaV9wy0mPu9lHqTkfX/hp1bTmjHVJGz+PIr47+PduNXsPEuhROQ5tLy6ZVJDMYoiUUEf7XJ9hWVWlz2jfdn3nCub1YU6qqaxhFu1lfTpfz2Pw+8V6hb654o1bWFYRLd3c8yoFwAGYkAY4xVO00WWa3inM0cT3I/dRucF1MyQZz2BYt+Ck1lRM0YV5gCGABJ5wDjJ/AV32geEdW8c+MbDwR4Pj/tTU764NtZKvywqgMpZyx+7HGp80seAAa/cYRjQoqF7KK/BI/wA/8TVrY/GzrWvOpJuy7yd/1IfB3gjV/Guv6boGix/aNQ1WeO3t4lwv76UMwYjtGiruYjgDgV/Qj4P8NWvgzwno/hKybzIdIsobQP8A32jX53/4E5J/GvDPgH+zL4O+CFqup5XWPFM0Wy41WRcLFu+9HbIf9Wh6Fj8zD0HFfS1fm/EWcRxlRQpfBH8Wf0JwFwlPKKEquJt7WdrpdF2v37hRRRXzZ+gBW94b/wCQkf8Armawa3vDf/ISP/XM0AdXrX/IGv8A/r2m/wDQDXyynKgD0FfU+sgto98B3tph/wCOGvlkBkwM4K9x6igArr/A2P8AhJ7TH92T+VcgeTk113gX/kZ7T/dk/lQB9B3X/HtL/uN/I15Sv3R9K9Wuv+PaX/cb+Rrylfuj6UALRRRQAUUUUAFFFFABRRRQAUUUUAFFFFABRRRQAUUUUAFei6F/yCoP+B/+hmvOq9F0L/kFQf8AA/8A0M0Af//X/UdWAVgVzkcex9abxTvLbJGMFRk5IH86bwRjHPrmgBSvG4BtvqRxmm0vOMc4/SkoAXknnv3NJ7VMFt9hJlYvxhQmB78k/wBKi6c/lQAZIpKcW3ADAGBjgYz9ab2xQAoA2k55Hb1pKKKAFyT17UlFKCOMjI/KgBKk3OY/Kz8oO7HuaYMdzig4zxzQAlFKPfijHOKAFBXaQR82Rg56UDAwWGR6ZoPHQ5J6j0/xptADiCFUkg57en1oZi3sPQdKbUreWVUqx3Y+YMOn0P8A9agCKvXPhW2RqgwODBz3PD15IDivW/hYxY6qzHJJtyT+D0Ad94j/AOQcf99f51wNd94j/wCQcf8AfX+dcDQAUUUUAKOo+tfMHij/AJGPUf8Ar4evp8dR9a+YPFH/ACMeo/8AXw9AGDXt3ws/5BV//wBfKf8AoFeI17d8LP8AkFX/AP18p/6BQB6dRRRQAUUUUAFFFFABRRRQAUUUUAFFFFABRRRQAUUUUAFFFFABRRRQAUUUUAFFFFABRRRQAUUUUAael6k+myu23eki4Zc45HQ184a1Zar/AMLQnbVWjuYbyykuY9iFFVJD5bowJbcRwM9wele+V5t4hi3+LFus8Q6aIvxkl3fyWsqvRo+q4QqSWN9ktpJ3+Wv5nwT8Y/2atDn1uTU/Dnh6Q2d8FLvpiENayE4b91ExZlPXPlSenFe9/szfs3+GvhTf3PjIXFzf6zcWf2SJrkBVtIJ2DyKi7Ebc20BiwBxkY5Ne55B4BBre0C4WG8aBzgTrhc/3l5H5jNek84xcqP1eU3yl5v4dZNRlVzTD4eKqrVWVra6vTR6X3V10Z2dFFFcR8kFFFFABW94b/wCQkf8Armawa3vDf/ISP/XM0AdXrX/IGv8A/r1m/wDQDXy0qnYrY4PGfevqXWv+QNf/APXrN/6Aa+Wgx2gDjIAIHfFACnbxtz75rrvA+B4otNpyNsnt2rkK67wL/wAjPaf7sn8qAPoO6/49pf8Acb+Rrylfuj6V6tdf8e0v+438jXlK/dH0oAWiiigAooooAKKKKACiiigAooooAKKKKACiiigAooooAK9F0L/kFQf8D/8AQzXnVei6F/yCoP8Agf8A6GaAP//Q/USilGM80cUAJS9qSntIzKqnACDAx35zzQAikKclQ3sf/rU2ipPKc/dG75dxxzge9ADOp4H4VNIgiZQGyjqrZHcH/A1BRQBJKIxIwhJKZ+Unrio6KKAFG3ByDntSUpGKSgAoop2cjnt0oAb05FLkkkk8nrSUq43Dd0zzQAHbgYHPenxCJnAmYovPIGTTWADHbyoPBptAC5PTtSU9ELhiCBtGeT1+lSJbyyRtIgyFGTjqBQBBg1638K/+Yr9bf+UleSV638K/+Yr9bf8AlJQB33iQgaaSTj516/WuA3p/eH5ium+IEE1x4faOBGdvNjOF69a8P/srU/8An3l/z+NAHpW9P7w/MUb0/vD8xXmv9lan/wA+8v8An8aP7K1P/n3l/wA/jQB6WHTI+YfmK+cPEumalLr+oSxWszo87FWVCQR6g16J/ZWp/wDPvL/n8aX+zNV/54zfn/8AXoA8f/sjVv8Anyn/AO/Zr2L4aW89npl6l3G0LNcKQJBtJGzrzTf7M1X/AJ4zfmf8aQ6Xqh6wSn6//roA9K3p/eH5ijen94fmK81/srU/+feX/P40f2Vqf/PvL/n8aAPSt6f3h+Yo3p/eH5ivNf7K1P8A595f8/jR/ZWp/wDPvL/n8aAPSt6f3h+Yo3p/eH5ivNf7K1P/AJ95f8/jR/ZWp/8APvL/AJ/GgD0ren94fmKN6f3h+YrzX+ytT/595f8AP40f2Vqf/PvL/n8aAPSt6f3h+Yo3p/eH5ivNf7K1P/n3l/z+NH9lan/z7y/5/GgD0ren94fmKN6f3h+YrzX+ytT/AOfeX/P40f2Vqf8Az7y/5/GgD0ren94fmKN6f3h+YrzX+ytT/wCfeX/P40f2Vqf/AD7y/wCfxoA9K3p/eH5ijen94fmK81/srU/+feX/AD+NH9lan/z7y/5/GgD0ren94fmKN6f3h+YrzX+ytT/595f8/jR/ZWp/8+8v+fxoA9K3p/eH5ijen94fmK81/srU/wDn3l/z+NH9lan/AM+8v+fxoA9K3p/eH5ijen94fmK81/srU/8An3l/z+NH9lan/wA+8v8An8aAPSt6f3h+Yo3p/eH5ivNf7K1P/n3l/wA/jR/ZWp/8+8v+fxoA9K3p/eH5ijen94fmK81/srU/+feX/P40f2Vqf/PvL/n8aAPTE/eMI4/mZjgAHJJrrLLw0WUPeuVz/An9TWV4H8JnS4hqeor/AKXIPkQ8+Wp/qe9ei0AZEeh6Wg/1O73Yk/1qT+xdIL+Y1lAzYxuaNWOB7kVp0UFQnKDvF2K0dnaQ/wCqhjT/AHUA/kKdLbW842zRJIBzhlB6fUVPRQP2kr3vqYlx4f06cfIpib1Q8fkciueu/Dt5AC0BEyjsOG/Ku8ooIPI3/dsUk+Rh1DcEU3en94fmK73XvDWna9CVuF2TAfJMnDKf6j2NeC6j4c1fTrySzkhdyh4dfuup6Ec0Ad7vT+8PzFb/AIbKnUjgg/uz0NeLf2Vqf/PvL/n8a7j4fWN7b6+ZJ4nRPIcZbpnI96APXdb/AOQNf/8AXrN/6Aa+WypTAODwDkHPUZr6k1r/AJA1/wD9e03/AKAa+WV+6PoKAJNzGPbgbQc5xzz711ngXH/CTWvPOJOPXiuQrsPApY+JbQY4USHOPagD6Buv+Pab/rm38jXk6sm0fMOg7ivUtTUtp10qjJMEgAHqVNfMSaVqmxc28vQfy+tAHpm9P7w/MUb0/vD8xXmv9lan/wA+8v8An8aP7K1P/n3l/wA/jQB6VvT+8PzFG9P7w/MV5r/ZWp/8+8v+fxo/srU/+feX/P40Aelb0/vD8xRvT+8PzFea/wBlan/z7y/5/Gj+ytT/AOfeX/P40Aelb0/vD8xRvT+8PzFea/2Vqf8Az7y/5/Gj+ytT/wCfeX/P40Aelb0/vD8xRvT+8PzFea/2Vqf/AD7y/wCfxo/srU/+feX/AD+NAHpW9P7w/MUb0/vD8xXmv9lan/z7y/5/Gj+ytT/595f8/jQB6VvT+8PzFG9P7w/MV5r/AGVqf/PvL/n8aP7K1P8A595f8/jQB6VvT+8PzFG9P7w/MV5r/ZWp/wDPvL/n8aP7K1P/AJ95f8/jQB6VvT+8PzFej6CQdJgIOfv/APoZr5u/srU/+feX/P41794Jilg8MWUUylHXzchuozK5oA//0f1EopSCMEjr0p0bmMkgA5BHIz1oAZS44zSUUASRo0rhBgHHc4HFCyPGropwH4OPQVHSg4oAAcEH0pKKlhi81wuQo4yT2FADAxClfWljTzJFTIG4gZPQZ701htYqDnBIz64oGCQD0oAVl2sy5zgkZHfFNqedIVl22770PQkYqCgBwC7WJOCMYHrTaKUDP4c0AJSk5OfWlVgucjOQR9M96lk8hUVY8s3Ut0H0x7UAQe1HvRRntQAVJFK8L70OD39xTBjPPIpWXaAezDIoATPzbgO+cV7B8MnSSXVXjG0H7MSPQ4fOPbNeP44z61638KwR/anubf8A9qUAd94j/wCQcf8AfX+dcFk13viP/kHH/fX+dcDQAuTRk0lFAC5NGTSUUALk0ZNJRQAuTRk0lFAC5NGTSUUALk0ZNJRQAuTRk0lFAC5NGTSUUALk0ZNJRQAuTRk0lFAC5NGTSUUALk0ZNJRQAuTRk0lFAC5NGTSUUALk0ZNJRQAuTXR6Bpv2mT7ZMMxxn5Af4m9foK5uu30DXtF1APplhMn2izAWWDI3r747g+tBcacpJyitFv5HS1QsTfE3C3oXCzN5TL/FEeVz7jofpV+oFmBuHt+Mqiv74Ykf0oIJ6KKKACiiigAooooAK57xFZefafakHzwcnHdD1/LrViw1iC91C/04FRLZSKpXPJVlDA4/HFa7KHUowyGGCPY0AeTZNb3hsn+0j/1zNZF1AbW5ltz/AMs2IH07fpWt4b/5CR/65mgDq9a/5A1//wBe03/oBr5aXkKB6CvqXWv+QNf/APXtN/6Aa+WV+6PpQA7BGQeCK67wKT/wk9oCTjEmB+FchXXeBv8AkZ7T/dk/lQB9B3X/AB7S/wC438jXlKk7R9K9Wuv+PaX/AHG/ka8pX7o+lADsmjJpKKAFyaMmkooAXJoyaSigBcmjJpKKAFyaMmkooAXJoyaSigBcmjJpKKAFyaMmkooAXJr0TQv+QVB/wP8A9DNedV6LoX/IKg/4H/6GaAP/0v1FLEgAngdPakopVUsQq8k0AJSgZpKXJHSgBQuXCDnJxQ67GK+hxRldo/vZ6+1NoAKewUMUByoPDetMpx24GOvegBdpChz0J/lTfcdKcpUA5GTjj2NNHPGcDrQAY4B9aSnlNqhzyGyAfcYz/OmDjmgAoopysVYN1x2PSgABGwrjkkYPpim1PMQ4EgwN38I7AADP408C3RHO7ewICjGAQetAFfg5I49BTacQRgEYzyKbQA5QpYBjgdzQwIOD26Uhx2pKAHuqqFKtuyMn2PpXrPwrxjVDnnMH8nryOvW/hX/zFfrb/wApKAO/8R/8g4/76/zrga77xH/yDj/vr/OuBoAKKKKACiiigAooooAKKKKACiiigAooooAKKKKACiiigAooooAKKKKACiiigAoqlqOoW2lWMuoXhYQwgFyo3HBIHA+prkv+FjeF/wDnpP8A9+j/AI0Ad1RWPo2u6fr0ElxpzOyRPsbeu05Iz0qtrXijSNAljh1JpFaVS67E3DAOPUUAdDRXCH4j+FgCTJPwM/6o/wCNdxHIssSTJ92RVdc+jDI/Q0APooooArXk4tbWW4/uKSPr0H614brkGr2V/B4l0CQxX9rg704LDOSGH8Sn0Ne4X9ubuzlt14Z1+X6jkfyrzW4iaWGW3LNGzqybl4ZSeMj3BrOpc/QuDaVGeHqxl8TevpbT9T3D4c+Nv+E20Nb64t2tbqNjHMhGEZl6shPVT+nSujgu45PEdzaxnJjtIS31LycV5h4ele20uz8mT95DGsbOo25dRgkgcZPU11PhjLeILp2bLGziznqf3knNXHY+Ix8IwxNSEY8qTenY9EooopnIFFFFABQelFFAHzT4j1G80jx3f3tqxjkEiDrgMhVeD7V75p2uWd5pSapJIsSAES7iBsdeGB/GvO/GWgWWp6uZJCY2XaWZOrAjoa8ydzDcXWlK7MtpKFkGfl8wqDj3YJtz6ZA61MpWPayTJ3mFVw5rJavvby/rqetX2rafrF09xp5JVMIxIxkjoR7Vp+G/+Qkf+uZrzLw55n2mXH3PL+b654r03w3/AMhI/wDXM04u6M87wEMHi5UKbutPxR1etf8AIGv/APr2m/8AQDXyyv3R9BX1NrX/ACBr/wD69pv/AEA18sr90fSmeSKeOK6/wMMeJ7PkHKyHj6VyB5rsPAysPEtm5HykSAH1IFAH0Ddf8e0v+438jXlK/dH0r1a6/wCPaX/cb+Rrylfuj6UALRRRQAUUUUAFFFFABRRRQAUUUUAFFFFABRRRQAUUUUAFei6F/wAgqD/gf/oZryfVtXsNEtReai5jiZxGCqljuIJHA+lel+EdQtdV8PWl/ZMXhl8zaxG0nbIyng+4NAH/0/1HCgozZxtxx65pvTBB5/lSUUAKcA4BzSUUUAOcKGIU7h2PrShsIV4O7H1GKZS0AB68c0lFKAScCgA4xRgjn1oGM804uSADzgYGe30oAbk4x2FABY4AyaVtmF2gg4+bPr7VJbzvbTLMmCy54PTmgCGilY7mLYxk54pKAHIjOSF64J/KkIIODQFLZwM4GfwFJQA4szEEkkjgUqpkZJA4z+uKYDg5FFAD0ZVJ3jIIIplOYrhdoIOOc9zTaAFJyfSvWvhX/wAxX62/8pK8lJJOTXrXwr/5iv1t/wCUlAHf+I/+Qcf99f51wNd94j/5Bx/31/nXA0AFFFFABRRRQAUUUUAFFFFABRRRQAUUUUAFFFFABRRRQAUUUUAFFFFABRRRQBynjn/kUtS/65p/6MWvm6vpHxz/AMilqX/XNP8A0YtfN1AHt/wt/wCQRe/9fC/+g1g/FP8A5CNh/wBcG/8AQjW98Lf+QRe/9fK/+g1g/FP/AJCNh/1wb/0I0AeWSf6tv90/yr61sf8Ajwtf+veH/wBAFfJUn+rb/dP8q+tbH/jwtf8Ar3h/9AFAFmiiigArlNd04qxvoBwf9YB2P97/ABrq6QgEEEZB4INJq56OV5jUwVdVqfzXdHE6Lf8A2W48mQ4ilOPo3Y16j4WB/tu6PpaQj/x+SvL9X0v7G3nQjMLnp/dPp9PSup8FazeLqAtktGumkVInlVseXEpJ3NkY4z681EXbRn1GeZfDH01meC2fxbLb16rZ/Kx7TRRRWh8MFFFFABRRVS/iu5rSWOxmEE5X93IVDAH3B7UFQipSUW7HkPxI16XRpzBp21tVvv3VijDcqsFG+dx/zzhB3H+821f4q8y02wFlbRWMLSTsCcySHdLNK5y7ue7uxLE+p9K3de+2XOvT3mqxqL8ItsxUHGxDkBQScAk546muj0jSxZoLicZnYcf7APYe/qfwrDlcpXZ+jYZ0MjwHtJ2lUn269vku/n5pFrTbIWFsIzzI3zSEevp9BXXeG/8AkJH/AK5msGt7w3/yEj/1zNbn57iMROvVlWqO8nqzq9a/5A1//wBe03/oBr5ZU5UfQV9Ta1/yBr//AK9pv/QDXy0hAXkZ4/KgxFJyAMDiut8C/wDIz2n0k/lXI11/gbH/AAk9pj+7J/KgD6Cuv+PaX/cb+Rrylfuj6V6tdf8AHtL/ALjfyNeUr90fSgBaKKKACiiigAooooAKKKKACiiigAooooAKKKKACiiigDzz4m/8i7F/19x/+gvXrPwl/wCSfaV/28f+lEleTfE3/kXYv+vuP/0F69Z+Ev8AyT7Sv+3j/wBKJKAP/9T9RwGkkwOWc/qaRlZHKuMFTyD7UgJByOopXd5GLOSzHqTQA2inxhGkRZDtUsAx9B3prY3Hb0ycfSgAJzSAZ6U5wFYhTuA7+tCkrkg44x+B60ANoqWOKSWQRIMse30qPHODxigAOO1B4OOtBOTmkHXFAD22bVC/e5ye3tSKpdgo6mm0UAKeDjrRg4z60lFADldkOVODgj8DTakJMshKgAseAOgzTCCCQeoOKAEoq/PHaLCDAWkcAbm6KCfaqIBJAHUnA/GgBKKljj3sU6MAf060QwSzhvKXOwbj7CgCKvW/hX/zFfrb/wApK8kr1v4V8nVSfW3/AJSUAdd43vm0/RDcIgc+agwTjqa8f/4Smf8A590/76Ne0eLbSC90kw3ALJ5iHAOOhrzD/hH9K/55H/vs0AY3/CUz/wDPun/fRo/4Smf/AJ90/wC+jWz/AMI/pX/PJv8Avs0f8I/pX/PJv++zQBjf8JTP/wA+6f8AfRo/4Smf/n3T/vo1s/8ACP6V/wA8m/77NH/CP6V/zyb/AL7NAGN/wlM//Pun/fRo/wCEpn/590/76NbP/CP6V/zyb/vs0f8ACP6V/wA8m/77NAGN/wAJTP8A8+6f99Gj/hKZ/wDn3T/vo1s/8I/pX/PJv++zR/wj+lf88m/77NAGN/wlM/8Az7p/30aP+Epn/wCfdP8Avo1s/wDCP6V/zyb/AL7NH/CP6V/zyb/vs0AY3/CUz/8APun/AH0aP+Epn/590/76NbP/AAj+lf8APJv++zR/wj+lf88m/wC+zQBjf8JTP/z7p/30aP8AhKZ/+fdP++jWz/wj+lf88m/77NH/AAj+lf8APJv++zQBjf8ACUz/APPun/fRo/4Smf8A590/76NbP/CP6V/zyb/vs0f8I/pX/PJv++zQBjf8JTP/AM+6f99Gj/hKZ/8An3T/AL6NbP8Awj+lf88m/wC+zR/wj+lf88m/77NAGN/wlM//AD7p/wB9Gj/hKZ/+fdP++jWz/wAI/pX/ADyb/vs0f8I/pX/PJv8Avs0AY3/CUz/8+6f99Gj/AISmf/n3T/vo1s/8I/pX/PJv++zR/wAI/pX/ADyb/vs0Ac3fa2upWktjeWiSQzAB13kZAIPUe4rm/wCzPDn/AECk/wC/r16R/wAI/pX/ADyb/vs0f8I/pX/PJv8Avs0AclpeoWuiwvBptkkKSNvYb2bJxjPNQarPp2tSRzalYJM8SlVPmMuATntXaf8ACP6V/wA8m/77NH/CP6V/zyb/AL7NAHmx0vw4QQdKTnj/AFr11qeJZYo0iS3QKihVG48BRgfpW5/wj+lf88m/77NH/CP6V/zyb/vs0AY3/CUz/wDPun/fRo/4Smf/AJ90/wC+jWz/AMI/pX/PJv8Avs0f8I/pX/PJv++zQBjf8JTP/wA+6f8AfRo/4Smf/n3T/vo1s/8ACP6V/wA8m/77NH/CP6V/zyb/AL7NAGBP4ikuYXgkt02uMH5jx7/hXofwyX/R75vWRB+S1zf/AAj+lf8API/99mu/8F2NvZQ3S24KhnUkE56KKVtbnp4bH+zwdXCv7VmvVPX71+R29FFFM8wKKKKACg0UUAeD+MLwWXiye48sSFVTAY8A7RzWR/wlM/8Az7p/30a7jxNo9hdazNPOhZ2CZO4joKwP+Ef0r/nk3/fZoSOvF4uVdx5topRXyX67mMPFE5OPIT/vo15l8P8A9rD4Xat8RpfBdzdmxkTzYUvrgeXaSTRHDIJGOB0OCcA17MPD+lDnyj/30a8G0f8AYv8AgjqXi6/1jUrS8u4L4Sy/2fLcH7LFJIcsyAANnPIySBQch9k3OtaPq+i3zaTfW16Dazc28ySj7h/uE183BWRQXUjjHIxXHa/+wx8LbK2udQ8Iat4g8OPDDJIostQkZMqpONrkjFfH+l6L8Y9K+LGrfCrw58QruI6fp0WqWU2pqZ0uoZFjJUqM7Su8jIz92gD7wrrvAv8AyM9p9JP5V8Z/av2svD/Mtl4d8URL3jcW8rfn5fP41s+Hv2h/iP4P1aG98Y/CbWwIQ259LLXK4I5ICrJkD/eoA/TLUHMVhcyAZKQyNj6KTXzynimcqD9nToP4jXm9l+3Z8CtSjk07xC2seHZ5I2SRNS091CbgRyYyx/HArT0D4k/AzxKqDRPFukTswGEkvPs8n/fM/lmgDt/+Epn/AOfdP++jR/wlM/8Az7p/30a2LbQdHvYhPZKLmM8h4JfNU/ihYfrSnw9pSnBiYH0LEUAY3/CUz/8APun/AH0aP+Epn/590/76NbP/AAj+lf8APJv++zR/wj+lf88m/wC+zQBjf8JTP/z7p/30aP8AhKZ/+fdP++jWz/wj+lf88m/77NH/AAj+lf8APJv++zQBjf8ACUz/APPun/fRo/4Smf8A590/76NbP/CP6V/zyb/vs0f8I/pX/PJv++zQBjf8JTP/AM+6f99Gj/hKZ/8An3T/AL6NbP8Awj+lf88m/wC+zR/wj+lf88m/77NAGN/wlM//AD7p/wB9Gj/hKZ/+fdP++jWz/wAI/pX/ADyb/vs0f8I/pX/PJv8Avs0AY3/CUz/8+6f99Gj/AISmf/n3T/vo1s/8I/pX/PJv++zR/wAI/pX/ADyb/vs0AY3/AAlM/wDz7p/30aP+Epn/AOfdP++jWz/wj+lf88m/77NH/CP6V/zyb/vs0AcnqupW+tWos9RtFkiDiQASMvzAEDkD3r3HwDDbQeErCK0j8mJfO2puLYzK5PJ568151/wj+lf88m/77Nes+GbeK10S2ggGEXzMDOersf50Af/V/USlBIORSuVJygIHvTaAJmiA2CNxIzjovUH0qGnIzI4dDhlOQR2NNoAUjpzSUpBU4IwaSgAopyqzkhecAn8B1ptABRTgpIJHakAJ6UAA6EZ/D1oBIOR1pKuSQ/Zggmw3mruOOqjP9aAK2NoIZeSAQaRipC4GCBg+59aGZmxk5wMD6U2gApcE5PpQTk56U/y3IXC9QSPfFADSAFDZGSTkemKQccg4I5FPjYI25l3Y7HoajoAXJzmnJI8edjEZ4OKZS4yDzQAlet/Cv/mK/W3/AJSV5OzbyWPU46dK9Y+Ff/MV+tv/ACkoA7/xH/yDj/vr/OuBrvvEf/IOP++v864GgAooooAKKKKACiiigAooooAKKKKACiiigAooooAKKKKACiiigAooooAKKKKACiiigAooooAKKKKACiiigAooooAK63wvIg+0RlgGJUgHvxXJVLA6RTxzSY2xN5jE9gnzH9BQCPUftEB6SKfoQf5U4Soehr+RRfEGswXlxd6ZqV9ZiaeWUfZ7uaLG+RmH3HHrW9b/ABN+Jlouy18Y+IoV9I9YvFH6TV9q+DZ9Kv4f8E/MY+JdHaVB/ev+Af1nF0HU1Gbm3XlpFH1IH86/k8k+K/xWmXZN438TOpGMNrN6Rj/v9XKajreuax/yGNUv7/8A6+7uaf8A9GO1EeDZ/aqr7hT8TKKXuUG/mv8Agn9U3ib41fCHwYrnxX400HSWQElLvUreJzjrhC+4n2AzXzF4v/4KLfszeGpFt9J1a/8AE8zSLGw0ixkMKbmALNPc+REVGckozcdBX87yQQxndHGin1VQD+dSON6lT3BH513UeEMPH+JNv8DysT4kYuWlGlGPrdv9D+rSfU4dYZNUtxiK5jjlj5zlGUFT+INQV4X+zN4ubxx8BvBevyyeZOdMjtbhu/nWhMTZ/wC+a90r4GvSdKpKm+jaP13C11WowrR2kk/vCt7w3/yEj/1zNYNb3hv/AJCR/wCuZrI3Or1r/kDX/wD17Tf+gGvy5+JB/wCEX/aH+GfjEfJBrFvcaDdN2JJITP4Tj/vmv1G1r/kDX/8A17Tf+gGvzB/aosJf+FcWHim1H+keGdZsr9GHVUc+U/6lD+FAH05hmbacAjj0HFdX4GGfE1qp6FZMj8K4mxvY9XsrXVLb5o76CK5THdZkDj+ddt4G/wCRntM/3ZP5UAVf2kNF0j+xPCOv6hY209po/jLQmvVmhSRGtNQnOmyhwwIZcXYJB7gHqBXD69+zP8CNeZ11LwVpkUuSrSWKyWT5HB5t3QfpXrf7Sukzax8BvHENt/x8Wmjz6lBjr5+mYvIse++EYq9a6hDq9pb6xbkGLUIIbyMjoUuUWVf0agD5Juf2L/hzaym58GeIvFPhWfqpstQEyKfo6q//AI/XK6/4A/aO+HGp+HtL8JfGG41WLX9QfTbdNdtN8cMqQSTr5jN9qyrCMr8oBz7V9z15H8XMQL4I1P8A58/Guk5Potyk9ufz8wUAeN/8JB+254Y41Dwp4S8aQp1fTrlbadx7KJYDn/tkajf9qbxj4a+X4l/BrxXooX789l/pcI9SPMijGP8Atoa+xCB0PNSRyyxf6p2T/dYr/KgD5Y0X9sr9n/VnEN5rN9oc38Ueq6dNHtPu8HnqPzFey6D8Vfhf4p2jw54v0PUGbokV/Csh/wC2cjI//jtcX8dtD0TVdF0FtT06zu2l8T6RDI01tE7PFLIwdGYruKsOoJwapeIf2V/2f/ETObrwda2khJ+fT5ZrUg+oVXZB/wB80AfQKo7IJUUsh6MvzKfxHH602vj8/sceGtIfzvh9438WeFpAcqsF55sQPbhTCSK5Twp4X/aolOtv4Q+J1tq1tomr3Okouv2yyG4NqqF3DGNyo3PtwX6jrQB910V8Xa18Tv2r/htpV1rnjjwb4e1rStPTzbm9067MGyMEAsQryY6/3K+nPhx4tl8e+A9C8aT2X9mvrVlHefZfM83yhJnA34Xdkc9B1oA7WiiigAooooAKKKKACvRdC/5BUH/A/wD0M151Xouhf8gqD/gf/oZoA//W/USilzk5PNJQAU9SyMHQ8rzmmUUASMVZQ2SXJJbPSlKx+UrbvnLEEeg7Go+cEdjUkshlfeQBwBx7UAMB2sD1APT1pCckn1pKUnPbFACUUU7a23fj5c4z70ANpSSevNPikEbbiobjjPY+tMJzQAAE9KSl+6eDShGZWcAkLjJ9M9KAG0oJBBB6UcY96SgBWYsxZup5NKGAQrjkkHPpjP8AOhQCwDHA702gBcFTg9qQ087SFxndk5z09qZQA47cDbnOOfrXrPwr/wCYr9bf+UleSkEdfrXrXwr/AOYp9bf+T0Ad/wCI/wDkHH/fX+dcEAWIUDJPAFd74j/5Bx/31/nXjfjXULzSPBXiLVtOz9rstIv7iDHUSxQOyke4IzVRjzNRRM5qEXJ9D518R/Gf4i+PPGmp/Dn9nbTbG6Ogy/Z9c8VasS2mWVz3ggReZ5V74OP6w3ui/tkeFYDrNl4o8L+NjD88ujy6e2nvMByVhmDHDema6L9kLSdO0z9nXwbcWOGl1a0fVL2Xq0t5dyM0zOepYH5eegGK+lK9KvXjQqOjTgmlpqrt28+nytY8jDYWpiKSr1aklKSvo7JX2VutvO9/wPI/g98X9F+L/h+51C0tJ9J1jSLg2WtaNd8XNhdr1Rv7yNjKN3FZPhL4ieIdb+PPxA+G16Lf+yPDNhpVzZFI8TF71WMnmPn5hxxxxXm2nww6F+2xqlvo4EcfiPwQl5q0SfdNxbTFYpWA/iYDGe+KvfDv/k7n4w/9gfw9/wCgSVU8PTXtJRWjgpLyu1/wfkZ08VWl7KM3qqji33tGX/Afqdx+0t8RvEPwl+CfiH4g+FRbtqmlyackAuo/NhxdXkUD7lyM/I5xzwa3fibafG66l00/CHUfD9hGI5DqA1q3knZ3YIY/K2EYAG7dn2ryb9uP/k1vxl/130X/ANOVvX1mPvJ/uJ/6AKwVqdCFVJN80t9ekf8ANnW1KriqlFyaXLB6O1rynf77K58M/Bbx1+1R8VbMeJm1TwhBo9lrlzpd9AbKZbiRLGUJMYiGIBYZ2E/jX3KcZOOnavkv9jL/AJJVrf8A2OXiD/0or6zp5m19YlCMUkn0ViMmjL6pCpOTk5K+rueS/GP4vaJ8HvDdtqt9azarqur3Q0/RNHtObrUr1sYjjHZVyC7dFBHcivJLPRf2yvFMA1m+8T+F/BLSjfFo0envqDQg8hJpywyw6HHeoNUij1/9urRLHWB5kHhX4bz6to8T8qt9e3hhnmUf31jOM9RtHpX15VSnHDwgoxTk1dtq++ySehMITxVSblNqMXypJ22tdtrXfZbfM+T/AA38Z/iJ4F8aad8Of2h9NsbV9bk8jRfE+klhpt7P2hmRuYZW7AnBNdp+0v8AEbxT8KfhVN4t8HfZRqo1fStOj+2xmWELfT+UxZQR0478VhftiaXp+ofs4+Mby+wk2kQQ6lYzdHhvLeZPLdD1DckcV55+1lfalqP7KWk6lKqnULnUfCU5WUkKbh5VYBj1AL9e+K6cPSpVqlKrypXlZrppZ3+d9UcmKrVqFKvQ5m7R5k+ut1a/dW0e52raP+2jHMY5PEPgPCNtbFjcZ4OD/F1r6lTeI0EpBfau8r0LYG7HtnOPavl6XXP21zdOZ/Cvw5GZG341O+z97nGV/KvqFN5jQygByq7wvKh8DcB7Zzj2rhxjel+X/t2342PRwFvesp/9v3/C54D8e/id4q8CweF/Cvw+tba48V+ONUOl6ZLfZ+y2ojTzJZpAMbtq/dXvXPeEb39pvwd490bw98Rhpnjjw1rxlik1nR7f7FLo00al91xGzfPCw4BHOenNehfGj4SWfxd8NWunpqE2ia5ot4mp6Hq9uMy2N9H918cbkbADr3HSvOvhV8bfFUfjRPgd8d9Pi0bx35LS6Zf23/IM8R28QJMts3AWbapZo+5BACsNp6aPK8N+7im1fmvv5NeS8vnocldyjjL1pyjF25Wn7vnFra7e1/lqiT436x+0X4Rg8Q+NfAupeGI/C+jab9uW0v7WWW/Jt4i043KwX5mB2+gp/wAEdW/aK8WQaB408ean4Yk8Maxpy3ptbC1livl89N0Q3MxX5T96vQvj5/yQ7x9/2Lmpf+iGqz8AgG+DHw/B5B0DT+PX5BUe1X1O/Kr3teyva35+ZoqD+vtc8rcvNbmdr37dvI89+Jvxr8S2fjRPg/8ABnRYvEfjVoFur+W6cx6bo1u/3ZLpxyXbqsY5/phyeFP2yrOA6pb+PPCeo3ajedLl0l4bZ+/lrMG3L6biKofsgRx6novj3xvfgPrmu+M9UXUJG5kVbV/LhjJ6hVXkD3r6/p16kcNP2MIp23bV7vr6LtYnC0p4un9YqTkubZJtWXTbd97ngnwd+NcvxA1HVfAvjTR38LePPDyq+paRI2+OWBuFurST/lpC35itP4z/ABn0z4R6bp8MNhNr3ibX5vsmh6Han9/eT+pP8ES/xNXlnxkhi0f9pX4JeI9LATU9SutS0a72cNNp7RByH9VRjxnpmotLtotc/bc16fV8SN4Z8G2R0hH5Ef2xz50iA9z0JFaLD0XJVre7yuVvNO1vS/4GUsXiIweG5vf5lFS8mua9trpaepas/D/7ZniOEatqHi7wr4Qkl+dNJg0577yQeiSTFhuI74rY8G/Er4yeGvHWm/DX42+HoLs64ZE0jxR4ejd7CaWJSzR3URybdtozuJxX09SgkdK5JYxSTjOnG3krW+f+dzuhgHBqUKsr+bun8np91rfgeFeK/iL4i0b4++AfhnZLbnSPEum6rd3hePdP5lmF8sI+flHPIxzXN+KPi/4o8V+Of+FXfAmO0vb/AE6VT4j8QXaGfTNJj7wqFIE103ZAcL3r5t/bav8AxZpnxY+H974PbUUuY9D1n7ZJpKK99HppeMXbwBv41hyQRyK+0vghp/wxsPhlorfCAxSeGrqETwXCHdLPK3+se5Y/MbjdnzN3IPHSu2pRp0cPTxDjdtW8r3er/RdbeVn51HFVcRjK2DUrKLTv1tyx0j8930v53PVYlkSJElfzHVQGfG3cwHJx2yecdqfRRXin0QUUUUAFFFFABXFfErWv+Ea+G3i/xEDtbTPD+q3Sn/ajtZNv/jxFdrXzv+1rqp0b9mr4hXana02lJZD/ALfLmGEj8mNdGEp89eEO7S+9nJmFX2WFq1O0W/uTP514htiRT1CqPyFSUUV+0H8vt3dwopjuIwCQxyQPlUscnpwOa19W0PXtAnitvEGlX+kzTxCeKPULSa0eSIsV3osyIWXcpG4DGQalzinyt6lqlNxc0nZdehl0UUVRmftV/wAE5vEh1T4M6t4dkbLaFrcoRc9I7tFlH4bi1foFX5G/8E0NbMXiTx14ad/luLGxv40/2opHiY/k61+uVflHEFL2ePqLvr96P6H4PxHtsooye6VvubQVveG/+Qkf+uZrBre8N/8AISP/AFzNeMfSnV61/wAga/8A+vWb/wBANfDvxP8AD/8AwlPw18SaDt3Nd6ZcCMf9NY18xPx3KK+4ta/5A1//ANe03/oBr5aADACQZVhyD3BoA8a/Z818+I/g74avHbdLbW7WMvqGtmKjP/AStfSfgX/kZ7T/AHZP5V8C/AzUfGvhW88afD3w7otjq0Wha5PIUudQaxlSOdiE2DyZFZSApySK+ovCfjr4hadrtvNP8N9QunRX+XT9W0+4J47CV4CfzFAH2dremW+taPfaPdjMF9bTW0o9UmQow/I18wfAi/m1L4L+Cpbkk3Fto8Gnz56ibTi1nID77oa7G4+PU1kpTVfh344snwcsumQ3ig/W0uZifyr50+FPxi8CeF9J1/w7r0mqaUtj4o1mS3W60bUB5VrfzfbYll2W7iJx57fI+GAwcYINAH1jXkHx1/c/DttR76bregX2fQRajACfyc1LbfHr4JXLBF8c6JC5/hurg2jflcLHiua+Mvi/wX4i+DXjBNC8R6NqUiaY1zEtnqNtO7PayxzjCpIWJ/d+lAH0FKMSuPRiP1plLaiS/t47u2QzJMiSBo/nGHAbqufWnvDNH/rI3T/eUj+YoA8d+M//ACAfD59PFei/+jWr2B/vt/vH+deP/Ghh/wAI7oRz08VaJ/6ONewP99v94/zoAQMqEO33V+Y/QcmvIPgUrS/DOx1d/v65fapq7H1F5eSsh/74Va7D4gax/wAI94C8Sa7nB0/SL64B/wBpIXK/+PYpPh9o58PeAPDGhMMNYaNYQOP9sQIX/wDHiaAPHP2udWOk/ADxKEOJL82tinqTLIGIH4JXs/gPSBoHgbw7oajb9g0qytyPdIVB/Wvmv9rpm1ey+H3gKI5bxD4qtg6DvFAVzx6fMa+wCqp8ijCrwB7DigBKKKKACiiigAooooAK9F0L/kFQf8D/APQzXnVei6F/yCoP+B/+hmgD/9f9RKKKKAJAN6KiLlxuJPqOv6c064aFpma3BWM4wD245/WoxtCk5IbIx9O9IBmgBzOXA3HJXgfSk3NtCdgSfzpM4yKSgAooooAKUHGO4Bzj1pKUd6AHzGMyuYQQhOVB6gelMIx70lP+Ty/9rP6UAMp4kdY2iBwjkFh6kdKZRQAUUUUAHXilCk59sZ9s0lKGIBXs2M/hQAqoztsQZPtTaVWZTuU4I70lABXrfwr/AOYr9bf+UleSV638K/8AmK/W3/lJQB3/AIj/AOQcf99f515+8cUqPDOiyxSKySRtyro4Ksp9mBINeoajZ/brR7fO0nlT6EdK4R9H1JGKmBjjuvINAHwLoGreJP2QL2/8JeKdI1PXvhHdXk17oWv6VA15caD9pcvJZX9unzmEMSySL6nGQSqdnqH7afwSlhFt4Em1fxtrc/y2mj6NpN59omkPRWeeKNIxn7xJJA7GvsdNM1WM7o4ZVJGMjjI9PpTItI1CAs0Fr5Rf7xijWMt9SoBP416EsVRqPnrQvLrZ2T82rP52aueXDA4ilH2eHqpQ6Jxu15J3XyunY+XPgX8OPGllrfiL4y/FtIrfxr4xEUX9mwP5kWjaVBzBZh+jSfxSEd/ckDg/HOu3PwC/aA1b4ueJdMvrvwL430ixsL7VNOt3uzpN9YEhftEUYL+VIpJDAfQHnH2//ZOo/wDPu/5U5dL1Rc7YJBkYPHBHoR3H1qVjW6kp1FdNWa206JdrWVv1KllyVGNOlK0ovmT311u3te93fbysfnh8W/ij4d/ap0yx+A3wS+1a/DrWqabdeI9c+xz22naRpVhcLcSF5Z0j3TSFAqIByeASxAr9AnZXnZkG1Cx2g9l7D8BVtNI1COPyorUxpndsjRUXPrhQBn3pf7K1L/n3f8qzxFeM4xp042ir9bu73d7LsuhthcNOnOVWrLmlK2ysrK9kld9316nyD+xzbXNp8Ltaju4ZIHbxhr7hZUZCVa44YBgDg9j0r6trTfTNVc5eGRj0yeab/ZOpf8+7/lUYmt7arKra1y8Hh/YUY0b3srHy18d/hv411DXfDHxq+ESwzeOvBAngXTrhgkGuaRd83Fg7HG18lmhJIGWYcNtIwLD9tP4JQ25g8dyax4I1uEbbvRda0m8+0wSj7yq8MLpKM/dYFSR1A6V9h/2TqP8Az7v+VEuk6hNtM9r5pT7pljWQr9CwJH4VtDE05QVOvG9tmnZ27bO6+RhPB1Y1JVcNNR5t01dN7X3Vn311PgfXNW8Rftf3+n+FvDmjalofwlsr2G+1nWtVgazn102zbo7S0gf5/JLffdu3UA4Fdv8Atn2Us3wJFpp9u8mzxL4bCRQIzlUS7A4VQThR+VfYj6ZqjnLwSMegzzgUJpuqxndHDIp6ZHBq44/lqQlCNoxd0vzu+7M3lvNSqRnO85qzdvusuy7X+ZUu+bucj/nq/wD6Ear1o/2TqX/Pu/5Uf2TqX/Pu/wCVeeeofN/xf+K3i34R6/ofiC+0H+1PhzPHJBrt9p8M1xqml3TH9zO0atta1xw21S2e/AB+e/HfxA8NftQfEj4X+G/gpHdasPB3ii28Tax4nNnPaWul2NtgvbpJOkbPLcFQNgGCwUc8kfoqul6ohysEgOMceh7fSmppGoRx+VHalI87tiIEXPrtUAZ98ZrvoYunSSkoe+k1e+mvdW1+9Hl4rAVazcHU9xtNq2unRO+i07PyPGfj2klz8FfHyQRs7y+H9SCRopZiWhfCqBkk9gBT/gWksHwX8CRyK0ckfh+wBVgVZWCdCCMgj3r2VdL1NSGWCQEdCOCKG0vU2JZoJCT1J5Nc/tv3Psrdb/hY7Pq/+0e3v0tb53Ph7XdO8afs2/EfX/iJ4W0K88U/DXxjOL/XtN0pPN1LQ9TAw95BDkedbygfOo6eqkDdvz/ttfs6raebYa3qWpXrDEel2mi3zX8kh6RiN4UQMTxy+PevsJdL1RGDJBIrDoRwR+NNXSNQSY3CWu2Y9ZFjVZD/AMDADfrXQ8VSqJOvBtrqna/ro/vVjkWCrUm1hqiUW72cb2vvbVfc7/ofHnwt8J+PfiT8Tx+0J8VdIk8NQafZSad4N8NXDb7uztrj/XXt5jhJ5hwEwCoxwAoLX/jh4B8ead4x0L49/B+zXVPEvh63ksNU0Nm2f21pEh3NFG3aePqnUnjAPQ/Wv9lakTk28hJ5PFJ/ZOo/8+7/AJUvr0/aqokrJWt0t2/rW+o/7Mh7F0nJ3bvzdebv/ktraHyBp37afwFa3KeK9Q1PwjqsQxc6TrWlXiXcEg6pmKGRJMHoVPPoK1PBfxx8YfFvxxp0Xwu8J3CfD21aRtY8UeIoJtP+1gqQkWlQEh3cNgl5F2kcEIOT9Vy6RqE7K9xaecy/daWNZGH0LAkU99N1WQhpIZWIGBnnA9B6ClKth0m4U9X3d0vRWX4tlRw+KbSqVVZdo2b9Xdr1sl8j5B+INrcSfta/Ca5ELvBHomvLJIELRqWCYDHG0Z9D1rl/FHh3Xv2YvFl38T/h3Yz6l8ONcuBL4s8NWiGSTS55Dg6lYRLk7cn97Eo/pj7mGm6qFKCGUKeo7H8KRdM1RGDJBIrDoRwRVRxzSjFq8UrNd9W/k9dCJ5am5zUrScuZPs7JfNaa9znNI1bTdf0qz1vR51ubG/hS4t5lBAeOQZU4IBHHUEAg8GtGtJtL1NmLNBISeST1NJ/ZOpf8+7/lXC7X0PSV7a7mdRWj/ZOpf8+7/lR/ZOpf8+7/AJUhmdRWj/ZOpf8APu/5Uf2TqX/Pu/5UAZ1fHf7eWoGx/Zn1yEHH27U9JtvqPPMpH/kOvtX+ydS/593/ACr4F/4KOi7sPgFp9vMjR/avFFiOe4jt7pv516WTx5sbSXmjxeIqjhlleS/lZ+HlFFFfrx/Np3Xwu0JvFHxM8JeHVXeNQ1vT4GH+wZ0Z/wDx0Gv1k/4KN/Dldd+Gej/Euxi3XPhK/FndMOT/AGbqRCLk9cRXKpj0Ehr4M/Yn8Ny+Jf2lfCUccZkXTTdak4AzxBCyqf8Avt1r94viF8OZPiF4C8R+BNSt2Fv4g0u6sCzDiOSVD5Un1jlCOPpXxef490MxoyW0dX6N2f4H6pwhlCxeSYmm18bsvVLT8T+XKip7mzvNOup9O1GMw3dpLJb3EbDBSaFikikeoZSKgr7RO+p+WSi4tpn3J/wT11X7B+0GbFmwup6DfwY9WiaKUfopr9yK/ns/Y41NtK/aY8DSBsLdXdzZN7i4tpVA/wC+sV/RH/ZWo/8APu/5V+b8WwtjFLvFfmz9v8O6vNlbj2k/yTM+t7w3/wAhI/8AXM1S/snUv+fd/wAq6bQtJmtGa6uRtdhtVfQe9fLn3hpa1/yBr/8A69pv/QDXy3GrMAF6hc8+wr6k1r/kD3+f+fab/wBANfLSgbRzxQB8waVjwt+1Vqtm3y2/i7RI7lR03TwDBx7/ACfrX2d4G2/8JPa8ZBWTGe3FfF3x1J8N/ET4a+P0+VbfU2024b/pncYIz+tfaPgcAeKbYDoBJj8qAPoG5VRbTYA+438jXyh4Pkl0v4v/ABC0pXdBqVp4f16MAkZLwS2Mx6/3rdM19asodSjdGGD+NfLOu6ZNoX7QXh8IN66/4W1TT1I/jewuYbuIH3CvJ+tAHpNxFDeLsvI47hT2mjWUfk4IryP4l/DPwFrHgbxOz+F9De+/sXUmt7j+zLUTxzLbSMjpIIgysrAEEHINe4f2TqX/AD7v+VQXOhX93a3FpJbvtuIJoWyO0sbJ/WgD5t8H/A74K694N8Pa6fB+nQTahpNhdPNZNcWMjPNbxuzbrWaLkkk5rp1+Bvgy1/5Aup+LtGI6f2f4q1RFH0SaeZf0rW+AcN9qfwU8D3McTPs0O0gYj+9br5RH/jleuf2TqX/Pu/5UAfIHxa+HOsaToGkzWfxC8YXKnxDpMUcOqXVlqEUUkkxCyjzLISFozyoZyp/iBr1FvB/xmtHb7D8T7e7wT8ur+FLKXP1ezuLU/kKsfHKyu7bwto7TRMgPifRMZ/6+K9ofStRLsRbvyT2oA+PPjNB8cU+H95oural4O1O01y6sNGJtLDUdOunbULqOFVG64uogDn5vRc4yeK9Yk8QfG6ydkvPAegagqHbnSvFHlkheBhL2xj7DjL1N8T7K7u/FXwz8MPE26+8WJfuh6tFpFnc3WcenmBPxr2IaTqTYBt3Gepx60AfB2uatrXxD/ao8AaHrnh+58Pt4W0+61Sa0ubq1vMswJSRZLV3TaSygZw3HSvuGvkX4KWtz47/aM+KfxAgiaa30swaBaOBkDy+XA/BRX2X/AGTqX/Pu/wCVAGdRWj/ZOpf8+7/lR/ZOpf8APu/5UAZ1FaP9k6l/z7v+VH9k6l/z7v8AlQBnUVo/2TqX/Pu/5Uf2TqX/AD7v+VAGdXouhf8AIKg/4H/6Ga4v+ydS/wCfd/yruNHikg06GKZSjruyD1GWJoA//9D9RKXjFJRQA4c8frTaKdt+TfkcnGO/1oAbUoYtHtYDA4U+nc/nTWZjgN/CMUygBR70nfmlBxSsxdi7dWOTQBJLIrKsaD5Uzg9zn1qGiigAopeMe9JQAqnawbrg5xSdTRSqxVgw6ggj8KAEpVG5gucZOMmgkkknqTmjBxmgAIwSPSkoooAKKKXHGaAEr1v4V/8AMU+tv/J68kr1v4V/8xX62/8AKSgD12iiigAooooAKKKKACiiigAooooAKKKKACiiigAooooAKKKKACiiigAooooAKKKKACiiigAooooAKKKKACiiigAooooAK/MD/gqVcbPhH4Vtc/63xIGx/uWk3/xVfp/X5V/8FUpCvw+8Dxdn1u5b/vm2I/rXr5Cr4+l6/ofPcVu2UV3/AHf1PxLooor9ZP50P0t/4JfeHDqHxj8R+JSMjSNEWEHH8V5Lz+kdfu0eRX5Pf8ErvDoh8IeNvFbLh7vU4LJG9Y4Igx/8eY1+sVflvElXnx8/Ky/A/oHgnD+yyil53f4n80H7a3gUeAf2lvGNlBGY7TWZ49dtuMArqC75SPb7QstfK1frJ/wVQ8HLb+JPA/j6CP8A4+7a70i5k7ZiKzwD8mlr8m6++ybEe2wVOflb7tD8e4pwf1bNK1NbXuvR6np/wS1b+wvjN4D1ctsW28SaWXb0R7hI3/8AHXNf1bqwZQw6HpX8gNnfSaXeW2qQnEllPDcqfRoHWQfqtf14aTcx3ml2l3C25JoI5FYdw6g5/HNfMcYw9+lP1X5H3nhnVvSr0+zT++/+RoUUUV8UfqBma1/yBr//AK9Zv/QDXy0gJTPYAV9TaySNHviOCLab/wBANfLCHCjHpQB4D+03o76n8ItSvIBmfR57fUoyOoMLjJH4Gu2+Flv8XPE1roet6J4x02NtQsUniMmkK+0MgyCQ/JHTNdZ4p0dPEHhnVtCddwv7KeDHqWQ4/WvNP2OPGejxeC9G07XdTs7O50Wa80+RLq5ihcCJjtO12ViMe1AH01/wi/7R46eNtDb/AHtII/lJXj3xM0b466F4m8BeI9U8R6FcXMWvLptrNHpzosLapBJbZkG87kJYDAx82D2r7CTxn4Rk/wBVrWnP/u3cJ/8AZ68U/aL1fTLr4W3mqaXfWs1zol7p+rx+XPGzD7BdRzHGGPZTQBeXQ/2lF/5mbws/1024H8panTS/2kIyC+t+EpACMg2N2M/lLXs8WtaRMqtFeW7hgGBEyHIPI71bW7tZB8ksbfRwf60AfFPwEtvjnb/DS007w5d+GBaaZqOsaeI7uC7MqvZ6hcROCUcDbuU7fRcZ5r2Pd+0onT/hDpP+AXq/+zmmfAB3jtvHmmMMDT/HniFFHot1cC7H6T17/QB8NfHO5+OzeF9KHiK28LiBfEGlGI2rXe8z+ePLDbyRsLfe746V7EdU/aZU8aP4Rf6XN2P50v7SCk+DNIIBOPEuinj/AK+Vr6BzQB8Mazqnx21f45+G7efRPDj6x4d8P6pqUUKXdwIPK1CaC13uxXIf924QdCC3pXceOPiN+0D4L8Iav4o17w74at7HTbSWeaaPUZtyBR1VSnJz0Fdf4NJ1b9oP4j6tKhI0XSvDmgRPg43FLnUJh9cXcWfwrxT9r7xDdeNdQ8Mfs3+FnMmq+Lb2GbUwnW30yFtzM/dQ+D16gGgDr/2KPCl1ofwYg8RakhXUPFl7c61cFurC4c7M/wDAa+vaydC0ey8PaLY6HpyCO2sLeK2iUDGEiUKOn0rWoAKKKKACiiigAooooAKKKKAP/9H9RKXjGP1pKKALLRBrcTJj5DtYZ556Nj36VWpckZHr1pKAFOPrU1tFHNMI5X8tSCS30qCnyKquQh3DsaAEfaGIQkrngnrilyCqjGSMj8+lMooAUAZw3FJSn25pWCgjac8DP1oAbTwhKFxj5SMjvzSMFBG05GBn696bQA9gY2K5B7ccimUU7b8gfI5JGO/FACcY96CCKVApYBzgdyKb16UAFFFLxjHegBKKKKACvXPhWcnVSfW3/lJXkdet/Cv/AJiv1t/5SUAeu0UUUAFFFFABRRRQAUUUUAFFFFABRRRQAUUUUAFFFFABRRRQAUUUUAFFFFABRRRQAUUUUAFFFFABRRRQAUUUUAFFFFABX5Sf8FVT/wAUR4CH/UXvf/Sda/Vuvym/4KqLnwJ4Df01m7H524/wr2Mg/wCRhS9f0Z85xd/yJ6/p+qPxQoopGOFLegJ/Kv1g/nY/oc/4J0aCNH/Zp0u9ZNsuq399eMf7ytJtQ/kK+7a+c/2SdIXRP2cPAFjt2P8A2PDI49WkyxP45r6Mr8czKpz4qpPzf5n9NZNSVLAUaa6RX5H57/8ABSrwv/bf7Ox1wLl/D2sWN6PXbKxtn/8AHZa/n/r+oH9q/wAOL4p/Z28faTt3yHRbmaFf+msC+Yn6rX8viNvRX/vAH86+54Rq82ElDs/zPyfxGw/Jj4VV9qP5MbMu+GRP7yMPzFf1Z/AfWT4i+CvgTXWbc9/4d0u4c9fne2jLfrX8qA61/SR+wf4mTxN+y54LbP73S4LjSZRnODYTyQr+aBT+NZ8YU74eE+z/ADX/AADfw1rWxdWl3jf7n/wT7Aooor89P2MzNa/5A1//ANe03/oBr5aUDYpzye3pX1LrX/IGv/8Ar2m/9ANfLKg7R9BQA9TtYN6EV8WfCL4DfDDx98c/HfgX4g6Q18bK6+22bJcy25FvPliP3TLkbjmvtIivBNHm/wCER/bL8M6lny4PF2jTWTnoGmhU4/H5KAPY3/YE/Zlbp4cul/3dSuv6uaqn/gn7+zaDui0jUYiOhTU58j8ya+2aKAPh1v8Agnt+zqxytpq8f+7qT/1U1C3/AATz/Z+P3G1+P/d1L/GI190UUAfCh/4J6fAr+C/8TJ/u6kg/9oUn/Dvf4LL/AKvWvF0f+7qkY/nb192UUAfB8n/BPr4TsNqeJvGKgEMA2pxMAR0ODb4yOx6ikP7A3gZP9R458cR/TVE/+NCvvGigD4Jj/YK8M2zyy2PxE8b27zsHlePUUVpGVQoZysYLsFAALEkAAdBXs/wX/Zm8F/BvVtQ8TW99qXiLxBqCiF9V1qYXFzHAMfu0YAYBx8zHLEADIHFfR9FABRRRQAUUUUAFFFFABRRRQAUUUUAf/9L9RTjPHFKpUMCwyAeR602igCSVkdy0a7F9M5prlS5KDaD0HpQMtxxwDUkUXmbmY7VQEk/yH1NAENFPYIFUq2SR8wx0P9aZQApBGMjGRkfQ0oAIwBkmkJJxnsMD6UAkcjigBWRkO1wQfQ03GKe+8t+8zu9+tMoAKekbyZ2AsRzgU0nJzT1Z1G9MrjgkH1oAZtON2OM4z70lLuONueOtHHNACVKse6N5AwGzHHc59KZuGzbjnPB9ueKbQAUUUUAFLnjFJS8YPrQALjcN3AzyfavXfhaFH9qAZzug59Rh8V5DXrfwrJP9qZ9bf+UlAHrtFFFABRRRQAUUUUAFFFFABRRRQAUUUUAFFFFABRRRQAUUUUAFFFFABRRRQAUUUUAFFFFABRRRQAUUUUAFFFFABRRRQAV+WP8AwVPj3fDbwXL/AHNemX/vq1c/0r9Tq/MP/gqTFu+EHhabH3PEqjP+9aT/AOFevkTtj6Xr+h8/xUr5RX/wn4Z1HL/qnHqp/lUlMcZUj14r9ZP50W5/V/8ABmyGnfCfwhZgYEei2Ix9YVP9a9Mrj/h6oTwF4bUcY0iwH/kBK7CvxOs71JPzZ/UuHX7qNuy/I5/xXp8WreGdV0yZQ6XVlcQlTznfGy4/Wv5H7uyk0y8uNMm4ks5pbdx/tQuUP6iv6/nAKkMMj0r+U/47aFJ4a+NPjnRJF2G3169YLjGFmkMq/o9fY8HVfeq0/Rn5r4l0L0qFbs2vvt/keU1+4v8AwSy8Sre/Cnxf4SZsyaP4hF2Bn7sOo20ZX8DJDJ+Nfh1X6df8EtfFJ074teL/AAfI+2LW9AivlB/im0y4C4Hvsu2P0Fe/xHR9pgJ+Vn+J8hwRifZZvTvtK6+9f5n7nUUUV+Vn7+Zmtf8AIHv+/wDo03/oBr5cLBgNq7R2HU4PbPtX1HrX/IGv/wDr2m/9ANfLUe3aN2enGPWgB+0hMlTz90/zr5m/aJlbw3eeAPiTFkHw34jt/OccEW87Lv59MBq+l+AM559Mf1ryj45+FW8YfCHxXpcSlprbTpNRhx1D2ZDk/wDfG6gD9CLaZbi3jnT7siK4+jDIqavkb4R/tQfByX4Y+F38U+NdG0/WP7KtVvrW7vI454rhECurqxyDuHf616J/w05+z7/0ULw7/wCDCL/GgD3WivCv+GnP2ff+iheHf/BhF/jR/wANOfs+/wDRQvDv/gwi/wAaAPdaK8K/4ac/Z9/6KF4d/wDBhF/jR/w05+z7/wBFC8O/+DCL/GgD3WivCv8Ahpz9n3/ooXh3/wAGEX+NH/DTn7Pv/RQvDv8A4MIv8aAPdaK8K/4ac/Z9/wCiheHf/BhF/jR/w05+z7/0ULw7/wCDCL/GgD3WivNfCHxj+Fnj/UpNH8F+K9J1q+ii897ayu0mlEQOC+1TnaD3r0qgAooooAKKKKACiiigAooooA//0/1EopaMDBOefSgCf7MzYMTLJ67TyPqDTAyeWVy/ODgH5dw9R346GmYKkEj3FBIwMZ6c/WgBtLjk8GkzT0AJGTg579MUACkA52huOh6fpSfeXGQNvPuaDw2QMc5FDKFPDbvQ0AKP3jje2M8Fm7U09fWkooAU8cfrSnIyu7I9jwabT0jaTO3kjtQAittzwDnjkZpMcZyOuMd6f5UmzzMfLUdABQBmiigBSMHFJTl25G7OM849KG27jsztzxnrigB7lQoVGDAgEkrgg9xnvTAMYcrlc/QGkII60lAD3KsxZF2Ke2Scfia9R+FtzEl1qNoxxJKkUij1CFg35bhXlrMW46D0HSrNne3OnXUd5ZuY5ojkEfqD6gjrQB9W0V5PafFCERAX9k4lHUxEFT74PNW/+FoaX/z6T/8AjtAHptFeZj4naYRkWk/5ik/4Whpf/PpP/wCO0Aem0V5l/wALQ0v/AJ9J/wDx2j/haGl/8+k/6UAem0V5l/wtDS/+fSf/AMdo/wCFoaX/AM+k/wD47QB6bRXmP/C0NL/59J//AB2nH4n6UDgWs59+KAPTKK8y/wCFoaX/AM+k/wD47Sj4n6WSB9lnH120AemUV5l/ws/S/wDn0n/8do/4Wfph6WdwfyoA9NorzH/haGl/8+k//jtSH4maYBkWk5GATgrxmgD0qivMv+Fn6X/z6T/pSf8AC0NL/wCfSf8A8doA9OorzL/hZ+l/8+k//jtH/Cz9L/59J/8Ax2gD02ivMv8AhaGl/wDPpP8A+O0f8LQ0v/n0n/8AHaAPTaK8zb4m6auN1nPyM9VNJ/wtDS/+fSf/AMdoA9NorzL/AIWhpf8Az6T/APjtH/C0NL/59J//AB2gD02ivMv+FoaX/wA+k/8A47R/wtDS/wDn0n/8doA9NorzL/haGl/8+k//AI7Sr8TtNY4WzuCfQYoA9MorzH/haGl/8+k//jtL/wALQ0v/AJ9J/wDx2gD02ivMv+FoaX/z6T/+O0f8LQ0v/n0n/wDHaAPTa/Nv/gqDBu+AuiXP/PLxVaD/AL7tbof0r7X/AOFoaX/z6T/pXy5+154P8Q/tH/CM+B/h/abtYsNTttXjiuHEaTJbJKjoH6KxEuVzwSMV6OU1Y08ZTnN2SZ43ENCpWy2tSpK8nF2R/PPT413yxp/edB+bAV2PjP4ceP8A4dXr6f458Pajok0bbSbqBljJ9pADGfwauU05o5NQtFBDA3EI4IP8a1+tqpGUeaLuj+dPYVIVVCpFp36n9bHghPL8GaDH/d0yzH5QoK6evHdC+Ium2Oh6dZtazkwWdumeP4Y1rV/4Whpf/PpP/wCO1+Kzd5Nn9Q0laCXkemnpX83n7enh1vD37T3idyu1dWitNSX/ALax7D+qV++3/C0NL/59J/8Ax2vxo/4KTwW2qfEPwt4ysbeSMajpstnKWGS0lvICoGO+1jX0XCtbkxvK+qa/X9D4zj/De1ypzS+Fp/p+p+bdfU/7FHioeEf2ofAl7I22HUbyfR5RnAYajBJDGD/22MZ+orxXw38K/iZ4wmjg8L+FdY1JpThDDZyhCT/tsqr+tfZPwg/YR/aRXxHonjW+sbXw2uj6haaigvJw91utZUlAEUeTk7cDmvucyxWGVCdOrNK6a3PyrIsux7xlKtQpSfLJPbsz+gEdOaWvNZfiVYW8hhnsbmNwTlXAU/kajPxQ0zBxZzk9uVr8iP6LOz8SXMVpoGoTSnA+zyKPdnUqB+JIr5iAIAGOgrq/Eniy/wDETCJ1ENshyIlOcnsWPf2rmkeYr5UZJDcFR3oAhrwX9onxXqmkeCE8J+G2P9ueNbhNDtEU/N5dwyiUj2OQp9ia9p13WdG8MWX9o+I76DS7XO3zbtxEpb0GeSfYCvlzQtV0/wCMn7RDeIdNnjudA8D2K/YWjPyy3cvHmqDzwSTnHYUAfZ/hX9kn4FaT4a0vTNX8HaXqV9a2kMVxeXEO6aeVVAd3OeSzZNb/APwyz+zz/wBCDov/AID/AP161tH+JU9tAsGrQG4KDAljIDH/AHge/wBK3P8AhZ2mcH7JPyM9VoA43/hln9nn/oQdF/8AAf8A+vR/wyz+zz/0IOi/+A//ANeux/4Whpf/AD6T/wDjtH/C0NL/AOfSf/x2gDjv+GWf2ef+hB0X/wAB/wD69H/DLP7PP/Qg6L/4D/8A167H/haGl/8APpP/AOO0f8LP0v8A59J//HaAOO/4ZZ/Z5/6EHRf/AAH/APr0f8Ms/s8/9CDov/gP/wDXrsf+Fn6X/wA+k/8A47S/8LN00qXFnPgHB5Xv+NAHG/8ADLP7PP8A0IOi/wDgP/8AXo/4ZZ/Z5/6EHRf/AAH/APr12P8AwtDS/wDn0n/8do/4Whpf/PpP/wCO0AfF/wAffhrof7OXiHwj8e/hVo8Ok6fol4LLX7KxQpHLZXRw0hUHkgZHpkLX6F6Pq1jruk2etaZKs9pfQR3EMiHKtHIoZSCPUGvH/GXiHwv478K6p4R1yxnew1a2e1nOFOwSDAf6ocMPcV81fsl/FS88K6LrXwO8XRzT6v4IunitSOWl0x2/dEZ5IjJ28fwFaAP0HorzI/E7TFOGs7gH0OBR/wALQ0v/AJ9J/wDx2gD02ivMv+FoaX/z6T/+O0f8LQ0v/n0n/wDHaAPTaK8y/wCFoaX/AM+k/wD47R/wtDS/+fSf/wAdoA9NorzL/hZ2mY3fY58Zx1X/ABrutG1SLWdNh1KFGjSbdhW6jaxX+lAH/9T9Re+TT5BGG/dMWU+owR7VH35pRgn2oAUEc7snjjnoaBkggDPfPoBSdDThuKnb0HXHof50AMqQswAG3blcdOo9aI1R3xK4jXu20tj8BU1zb/ZiEZ0kYgEFCeAfUEDrQBXZmc5Y5wAPwHSm08phQxZcHsGBI+o6imYoAMY60UpyOCMUZJAUk4HQUACkA5xnHY9KU4+8CMnPA7UrOWGMAA46D04plADwBt3b8HP3cH+fSmUu1j0B4o6UAGeMUlGKfs27WblT6Ef5BoAQKzHA6/WkIIJB6ig47frSUAO+UqSxOR09KNvOG+XjPNNpzEHGBj8c5oAbSgE5x2GTQSTjJzgYH0pKAFJLHnk0Z4xQCyNkEgj04IpCc8mgB27pnJx/Km0Ue9ACjbnnp7Uqsy/d7jH502lwcZxwO9AAQVO1hgjrmk61K0Y8tZfMRieqZ+cfUEfyqI880AFFFFABRT44pJSRGpYqCxx2A6mmUAL2qUOp+8u3qMrxwR6exqI4wMAjjnNJQAoxn5uR7Up5xg9hn60bjjaOBTxGGDOGCADIDnBb1xxzQBFUquE3oQHVhj057EemKjOPSkxQAVLIVZ8YVBx93kCozxz2PSnBQQSWAx0Bzk/lmgAfg7QVIXgFe9MopWwCQpyOxxjNACqQrAkZGeRTwEzuKkocgcjP+fwqMkHoMUvAAIPPp6UANpQcEEjPsaSlOM8UABBHUYpKeckZZskcYOc4oDLt2lQec570AMpQzKcqSD6igUpXH49u4+tACEEcEY70lLk0A47ZoAStTTNF1TWHdNNgM3l43tkKoz0yTWXXVaZrUVnpP2GLUdU0mfzGdp9Ois5d+QAAwuopRxjsBTiruzZMm0rpXOu0r4ZynbLq11s9Y4PfsWP9BXpelaLpuiw+Rp8IjB+8erN9T1NfPaeIvGtvMzad4vmuYxyRqug2s5C/W0urI/pVqXxv8R/LX7P4h8OM+PmM3h/UIwTnsE1KXHHHU88+1a+yj/Ovx/yMPrE+tN/+S/5nvup6NpOs25tdXs7e9hOf3dxEsq8+zAivE9X/AGXv2ftXle9vPAOhvdZ3iUWiq4ccggrjkHmq1h4z8fMf+Jl4l8ORj/ph4f1FyfxfUExx9a2ovGVzbLLPea5JqErD93Da6elpECB3MrTPj/gWauM50/gqW9Lmc6dOtb2tK/qov9TziRPKYwYA8olB9F4H5AU07SBtznvSyO8jNI55dix+pNLnawdcoP4T349+K5jtI663wRo2max4gQ6pZ294ltE7qLiJZQrNgZG4HB+lcljFa+k31raNPHeG8SOdNnmWM7W86EHOQylc/QnFOO5MldbXPpi3trS1jENrGkUY6JGAqj8BirPAr5mhlt4HL2njTxna5OdrNYXa/T/SLWY1akv7t0VV+Ifi5COpSw0Tcec87tMI9uB09+a1dON/jX4/5HP7aol/Dfycf80e+3+laZqSFL+COYH+8Bn8+teTeLfAsWmWz6npJYwx8yQsc7R6qeuB6VyEVxDE6yXni7xjq2OqTS2Nmp+v2O2tz+VaR8TWUFnLaWNlcuZUaMzX9/PdyYbrjzGbH4NUyjFbSuaQnUlvG3q/8r/mchuOMA4B6+9ICQcg4I704EbduB1zTisaMQW3jHVOBn8R0rM2Pyy/ah8Q6xrPxZ1LS9Rkc2mkJBDaQsTsVXjEjSAHjLs3X2rzP4YeINX8MeP9B1PRZHSdr+3t3RCcTRTyBHjYdwQ3581+i/xh/Z/0H4r3EWsxXz6LrcMYh+1LEJ4Z4l+6s0e5CSuTtZWBHTBFcx8Kv2XtE8Aa7B4p1/Vv7e1GzYtZxx2/2a1gfGPMIZ3eRwD8ucBeuCegB9TsMMQPWm0Uv60ABP6U4xvt34JX1HNHmMV2HBHbjkfQ9aFLoNykgHgkHr7UAMpc45HWgjvzjOAaT60ALk5z3pKerKpPy7vQn/DvSDBByceg7UANopQM05cgYDABjzz6etACKCzBF6sQPzr8pvjd8RrzWPi5rOteGnk0k2anRxcWjtFNcR2xKM8jAgncR0/uhfSv1ayVfIIypyCORkdK/Oj42/s5eN4fF+oeJfA2mya1pWqzvdNBalWurSaU7pEaIkF03ElHTPBwQCOQCf8AZz+N3i0eMrHwN4ov5tU03V3Nvbvct5k1tcEEoVc/MUYjayn1yK/Q4Eggjgivgv8AZ8/Z98X6T4ttPHPjqybSINLJlsrKcr9qnuCCFd0Uny40zn5juY4AGMmvvOgBwDMeAST+tNp+ZGXGSVTtngZpueMUAAGaSl68DrS7QG2vkY645oAU7eg7jv619D+Bcf8ACK2OP+mv/o16+ewkTIxDneMYUjgg9cHPUfyr6E8Cf8irY/8Abb/0a9AH/9X9RiRgcc5yT60ob5izAHPUdP5U3qC2R9KCBgHPXt6UAKDjPAORjntSY70lA4oAd8pYcEDv3pD1p7NGVGAVfofQ0JG7khVLcflQBHx2qVTEEcMrFzjawOAPqO9MfOctjkDp6Yo6gnPegAyW+8350gwDyMj8qdhduQ3OemO1NYYJGc47igBPpRRRQAuTSUYpcHrigBKfs4yvOBkkdqQg7Qe3Sm0AFFFLnICnoKAEooooAXjFJRR0oAKKKUAfxHFACVLHG0mAMcsAMnHJpG2FcrhSMDH973pgIwQQDn9KAHrsUsJATwQMHoaj56Uq4BGRkenSgjJyBwaAExmlPFLkFeeCBxgdfrTaAHKxXOO4x0ptKSxxnnHApWxxg9vyoAbyOelFFOUZIyce5oAFQsdo/Xim0ufXmnKoLfMSF7kDP6UANIIxkYyMj3Boz2PPpTsoY+d28Hj0xTelACU4tk57DoOwpPvHmnHlyJOD0OPXHFAE6ztGu6KMLuG1sjcrfn0NQO4dtwULwBgdOKcGlZPKUkp97b246mjKhQEyWYYYHp7YoAYCcEA4B6+9AOOQM/XnrS7GUjd8ue5pWDKu1scMeO4/+tQBHTsggADkd6bShipypxQAlFKTnHGMDFJQAUe1KMd6VgMnbnHvQAbvlAwODnPemkknJpe1KWyoXA4zz3OaAG0o60o24OeuOPrSDAIz0zzj0oAPl7ZPH60AZoJGcrwM8UlADsYwzDIzShh0bJUZwufWmZzRQA4HgjjnHPpTacMYwT2z07000AKSWOWOSe9LuYqEJO0EkDsCetJxQoydvHPrQAlFKBkE56UlABTl27hvyFzzjk4pME8+lJnjFAC+1HQ80lLg+lAASCcgYHp1p0fl7x5udvfHWmUoJU5FACd6KXk/hQrbTkfSgA3HAUngdB9aUZHzDqKFO07hjPvSDHegA5PNBBU7TwRRigAscDmgAJJGPSg+1PQrgq2SDngevY0zNACglcj19qcx3Iv+yCOgH/66Zk5zQDjOQDn1oAVsDoee/oKdHuDgqAcEHBGR+NMBOCB0PWkyaAJJSGkYhBHz90dBUeM0UueKADAHSnqwjPy4cHqGFMFG3gkdBQApIOcDGfem05dvOfTig7SePlBP1AFADe2KcMrgqeevHanpC0hIQgn0Jxn6ZqPke1ACjDEbjjPUmvojwLx4Vsf+2v8A6NevnkMfLYbRgkc49PQ19DeBP+RVsf8Att/6NegD/9b9RizFQpPA6D602iigBzHLEn/Cm5x0pT1pKAClyemTzSUUAFFFFACmlIxj6UhpW7fSgAbg4HoKbT3+9+A/lTKAClyRketJRQAUUUUAFFFFABSgkHI7UlFACkknJ6mkoooADSDkClPSkX7ooAU0UHpRQAU5Senam05etADc8YpxAwp9R/Wm09vur9P60AMooooAsQIr+aWGdqEj61EgDOAehNT23Sb/AK5tUMX+sX60AMbgke9IDTm+8frTRQAUUUUAOwNpPvTaePuH6imUAKCR0NJRRQA/que9OhUNJhhnhv0FN/g/Gn2/+sP0b+VAEW4kDJzgYFA6GkHSlHQ0AIKfKAsjKOgJApo61JN/rX/3jQBFRRRQApYkAHtwKSiigAqaVQoTAxlQT9ahqebpH/uCgCJ2LNuPU49qbSnr+VJQAUUUUAKOtB60DrQetACUh7UtIeo+tAC04OwUoD8p6im0UAFOHJAptOXqKAGiigdKKACiiigAooooAKKKKACiiigAooooAM4pxA2g+uabTz91fxoAaOtPUDzQO27+tMHWpF/1w/3v60AOuQFncKMDJ4FQVYuv9e/1NV6AF64FSSgLKwXgA8VGOtSz/wCuf6/0oAh69acWZsAnOOlNooAKKKKADJxivozwMAPC1jj0l/8ARj18519G+B/+RWsfpJ/6MagD/9k=;" parent="1" vertex="1">
          <mxGeometry x="70" y="40" width="297.52" height="151" as="geometry" />
        </mxCell>
      </root>
    </mxGraphModel>
  </diagram>
</mxfile>
